<mxfile host="app.diagrams.net" modified="2023-10-23T04:28:38.038Z" agent="Mozilla/5.0 (Macintosh; Intel Mac OS X 10_15_7) AppleWebKit/537.36 (KHTML, like Gecko) Chrome/118.0.0.0 Safari/537.36" etag="xkpTXg2AYX52P_wf6Icd" version="21.8.2" type="github">
  <diagram name="Page-1" id="NdMgCnAaFEa8sKhlBBnP">
    <mxGraphModel dx="1690" dy="1267" grid="1" gridSize="10" guides="1" tooltips="1" connect="1" arrows="1" fold="1" page="1" pageScale="1" pageWidth="850" pageHeight="1400" math="0" shadow="0">
      <root>
        <mxCell id="0" />
        <mxCell id="1" parent="0" />
        <mxCell id="MQ5hKufeDqWzDWaGNXCB-32" style="edgeStyle=orthogonalEdgeStyle;rounded=0;orthogonalLoop=1;jettySize=auto;html=1;entryX=0;entryY=0.5;entryDx=0;entryDy=0;" edge="1" parent="1" source="MQ5hKufeDqWzDWaGNXCB-6" target="MQ5hKufeDqWzDWaGNXCB-9">
          <mxGeometry relative="1" as="geometry" />
        </mxCell>
        <mxCell id="MQ5hKufeDqWzDWaGNXCB-6" value="Users" style="sketch=0;outlineConnect=0;fontColor=#232F3E;gradientColor=none;fillColor=#232F3D;strokeColor=none;dashed=0;verticalLabelPosition=bottom;verticalAlign=top;align=center;html=1;fontSize=12;fontStyle=0;aspect=fixed;pointerEvents=1;shape=mxgraph.aws4.users;" vertex="1" parent="1">
          <mxGeometry x="80" y="425" width="90" height="90" as="geometry" />
        </mxCell>
        <mxCell id="MQ5hKufeDqWzDWaGNXCB-8" value="AWS Cloud" style="points=[[0,0],[0.25,0],[0.5,0],[0.75,0],[1,0],[1,0.25],[1,0.5],[1,0.75],[1,1],[0.75,1],[0.5,1],[0.25,1],[0,1],[0,0.75],[0,0.5],[0,0.25]];outlineConnect=0;gradientColor=none;html=1;whiteSpace=wrap;fontSize=12;fontStyle=0;container=1;pointerEvents=0;collapsible=0;recursiveResize=0;shape=mxgraph.aws4.group;grIcon=mxgraph.aws4.group_aws_cloud;strokeColor=#232F3E;fillColor=none;verticalAlign=top;align=left;spacingLeft=30;fontColor=#232F3E;dashed=0;" vertex="1" parent="1">
          <mxGeometry x="270" y="120" width="780" height="520" as="geometry" />
        </mxCell>
        <mxCell id="MQ5hKufeDqWzDWaGNXCB-9" value="EC2 instance contents" style="points=[[0,0],[0.25,0],[0.5,0],[0.75,0],[1,0],[1,0.25],[1,0.5],[1,0.75],[1,1],[0.75,1],[0.5,1],[0.25,1],[0,1],[0,0.75],[0,0.5],[0,0.25]];outlineConnect=0;gradientColor=none;html=1;whiteSpace=wrap;fontSize=12;fontStyle=0;container=1;pointerEvents=0;collapsible=0;recursiveResize=0;shape=mxgraph.aws4.group;grIcon=mxgraph.aws4.group_ec2_instance_contents;strokeColor=#D86613;fillColor=none;verticalAlign=top;align=left;spacingLeft=30;fontColor=#D86613;dashed=0;" vertex="1" parent="MQ5hKufeDqWzDWaGNXCB-8">
          <mxGeometry x="97.5" y="200" width="455" height="300" as="geometry" />
        </mxCell>
        <mxCell id="MQ5hKufeDqWzDWaGNXCB-10" value="" style="shape=image;verticalLabelPosition=bottom;labelBackgroundColor=default;verticalAlign=top;aspect=fixed;imageAspect=0;image=https://static-00.iconduck.com/assets.00/flask-icon-1594x2048-84mjydzf.png;" vertex="1" parent="MQ5hKufeDqWzDWaGNXCB-9">
          <mxGeometry x="21" y="40" width="89" height="114.35" as="geometry" />
        </mxCell>
        <mxCell id="MQ5hKufeDqWzDWaGNXCB-11" value="" style="image;sketch=0;aspect=fixed;html=1;points=[];align=center;fontSize=12;image=img/lib/mscae/Docker.svg;" vertex="1" parent="MQ5hKufeDqWzDWaGNXCB-9">
          <mxGeometry x="260" y="130" width="116.65" height="95.65" as="geometry" />
        </mxCell>
        <mxCell id="MQ5hKufeDqWzDWaGNXCB-12" value="&lt;font style=&quot;font-size: 18px;&quot;&gt;Model Serving&lt;/font&gt;" style="text;html=1;align=center;verticalAlign=middle;resizable=0;points=[];autosize=1;strokeColor=none;fillColor=none;" vertex="1" parent="MQ5hKufeDqWzDWaGNXCB-9">
          <mxGeometry x="170" y="40" width="140" height="40" as="geometry" />
        </mxCell>
        <mxCell id="MQ5hKufeDqWzDWaGNXCB-13" value="&lt;font style=&quot;font-size: 18px;&quot;&gt;../generate_data&lt;/font&gt;" style="text;html=1;align=left;verticalAlign=middle;resizable=0;points=[];autosize=1;strokeColor=none;fillColor=none;" vertex="1" parent="MQ5hKufeDqWzDWaGNXCB-9">
          <mxGeometry x="65" y="170" width="150" height="40" as="geometry" />
        </mxCell>
        <mxCell id="MQ5hKufeDqWzDWaGNXCB-14" value="&lt;font style=&quot;font-size: 18px;&quot;&gt;../evaluate_quality&lt;/font&gt;" style="text;html=1;align=left;verticalAlign=middle;resizable=0;points=[];autosize=1;strokeColor=none;fillColor=none;" vertex="1" parent="MQ5hKufeDqWzDWaGNXCB-9">
          <mxGeometry x="65" y="210" width="170" height="40" as="geometry" />
        </mxCell>
        <mxCell id="MQ5hKufeDqWzDWaGNXCB-15" value="&lt;font style=&quot;font-size: 18px;&quot;&gt;Model Serving&lt;/font&gt;" style="text;html=1;align=center;verticalAlign=middle;resizable=0;points=[];autosize=1;strokeColor=none;fillColor=none;" vertex="1" parent="MQ5hKufeDqWzDWaGNXCB-9">
          <mxGeometry x="248.33000000000004" y="240" width="140" height="40" as="geometry" />
        </mxCell>
        <mxCell id="MQ5hKufeDqWzDWaGNXCB-22" style="edgeStyle=orthogonalEdgeStyle;rounded=0;orthogonalLoop=1;jettySize=auto;html=1;entryX=0;entryY=0.5;entryDx=0;entryDy=0;" edge="1" parent="MQ5hKufeDqWzDWaGNXCB-8" source="MQ5hKufeDqWzDWaGNXCB-16" target="MQ5hKufeDqWzDWaGNXCB-21">
          <mxGeometry relative="1" as="geometry" />
        </mxCell>
        <mxCell id="MQ5hKufeDqWzDWaGNXCB-16" value="Simple Storage Service (S3)&lt;br&gt;" style="sketch=0;points=[[0,0,0],[0.25,0,0],[0.5,0,0],[0.75,0,0],[1,0,0],[0,1,0],[0.25,1,0],[0.5,1,0],[0.75,1,0],[1,1,0],[0,0.25,0],[0,0.5,0],[0,0.75,0],[1,0.25,0],[1,0.5,0],[1,0.75,0]];outlineConnect=0;fontColor=#232F3E;fillColor=#7AA116;strokeColor=#ffffff;dashed=0;verticalLabelPosition=bottom;verticalAlign=top;align=center;html=1;fontSize=12;fontStyle=0;aspect=fixed;shape=mxgraph.aws4.resourceIcon;resIcon=mxgraph.aws4.s3;" vertex="1" parent="MQ5hKufeDqWzDWaGNXCB-8">
          <mxGeometry x="97.5" y="30" width="78" height="78" as="geometry" />
        </mxCell>
        <mxCell id="MQ5hKufeDqWzDWaGNXCB-23" style="edgeStyle=orthogonalEdgeStyle;rounded=0;orthogonalLoop=1;jettySize=auto;html=1;" edge="1" parent="MQ5hKufeDqWzDWaGNXCB-8" source="MQ5hKufeDqWzDWaGNXCB-21" target="MQ5hKufeDqWzDWaGNXCB-9">
          <mxGeometry relative="1" as="geometry" />
        </mxCell>
        <mxCell id="MQ5hKufeDqWzDWaGNXCB-21" value="Trained CTGAN model" style="shape=image;verticalLabelPosition=bottom;labelBackgroundColor=default;verticalAlign=top;aspect=fixed;imageAspect=0;image=data:image/png,iVBORw0KGgoAAAANSUhEUgAABQEAAAKBCAIAAABoD/ptAAAEDmlDQ1BrQ0dDb2xvclNwYWNlR2VuZXJpY1JHQgAAOI2NVV1oHFUUPpu5syskzoPUpqaSDv41lLRsUtGE2uj+ZbNt3CyTbLRBkMns3Z1pJjPj/KRpKT4UQRDBqOCT4P9bwSchaqvtiy2itFCiBIMo+ND6R6HSFwnruTOzu5O4a73L3PnmnO9+595z7t4LkLgsW5beJQIsGq4t5dPis8fmxMQ6dMF90A190C0rjpUqlSYBG+PCv9rt7yDG3tf2t/f/Z+uuUEcBiN2F2Kw4yiLiZQD+FcWyXYAEQfvICddi+AnEO2ycIOISw7UAVxieD/Cyz5mRMohfRSwoqoz+xNuIB+cj9loEB3Pw2448NaitKSLLRck2q5pOI9O9g/t/tkXda8Tbg0+PszB9FN8DuPaXKnKW4YcQn1Xk3HSIry5ps8UQ/2W5aQnxIwBdu7yFcgrxPsRjVXu8HOh0qao30cArp9SZZxDfg3h1wTzKxu5E/LUxX5wKdX5SnAzmDx4A4OIqLbB69yMesE1pKojLjVdoNsfyiPi45hZmAn3uLWdpOtfQOaVmikEs7ovj8hFWpz7EV6mel0L9Xy23FMYlPYZenAx0yDB1/PX6dledmQjikjkXCxqMJS9WtfFCyH9XtSekEF+2dH+P4tzITduTygGfv58a5VCTH5PtXD7EFZiNyUDBhHnsFTBgE0SQIA9pfFtgo6cKGuhooeilaKH41eDs38Ip+f4At1Rq/sjr6NEwQqb/I/DQqsLvaFUjvAx+eWirddAJZnAj1DFJL0mSg/gcIpPkMBkhoyCSJ8lTZIxk0TpKDjXHliJzZPO50dR5ASNSnzeLvIvod0HG/mdkmOC0z8VKnzcQ2M/Yz2vKldduXjp9bleLu0ZWn7vWc+l0JGcaai10yNrUnXLP/8Jf59ewX+c3Wgz+B34Df+vbVrc16zTMVgp9um9bxEfzPU5kPqUtVWxhs6OiWTVW+gIfywB9uXi7CGcGW/zk98k/kmvJ95IfJn/j3uQ+4c5zn3Kfcd+AyF3gLnJfcl9xH3OfR2rUee80a+6vo7EK5mmXUdyfQlrYLTwoZIU9wsPCZEtP6BWGhAlhL3p2N6sTjRdduwbHsG9kq32sgBepc+xurLPW4T9URpYGJ3ym4+8zA05u44QjST8ZIoVtu3qE7fWmdn5LPdqvgcZz8Ww8BWJ8X3w0PhQ/wnCDGd+LvlHs8dRy6bLLDuKMaZ20tZrqisPJ5ONiCq8yKhYM5cCgKOu66Lsc0aYOtZdo5QCwezI4wm9J/v0X23mlZXOfBjj8Jzv3WrY5D+CsA9D7aMs2gGfjve8ArD6mePZSeCfEYt8CONWDw8FXTxrPqx/r9Vt4biXeANh8vV7/+/16ffMD1N8AuKD/A/8leAvFY9bLAAAAOGVYSWZNTQAqAAAACAABh2kABAAAAAEAAAAaAAAAAAACoAIABAAAAAEAAAUBoAMABAAAAAEAAAKBAAAAAMI+z7oAAEAASURBVHgB7N0HnBTl/cfx3etwhV7uqNKxAdI0NlSsoDSNMbEnQUWjidFY/qJRo2BJokZjS2wYY0PAWFBQsaB0O0c7UOAK7YArXL/9/2bnblx2Z3efrbc387nX/S+zM8885f2Mf+57z+ys0+VyOfhCAAEEEEAAAQQQQAABBBBAwAYCSTYYI0NEAAEEEEAAAQQQQAABBBBAQBMgA3MdIIAAAggggAACCCCAAAII2EWADGyXmWacCCCAAAIIIIAAAggggAACZGCuAQQQQAABBBBAAAEEEEAAAbsIkIHtMtOMEwEEEEAAAQQQQAABBBBAgAzMNYAAAggggAACCCCAAAIIIGAXATKwXWaacSKAAAIIIIAAAggggAACCJCBuQYQQAABBBBAAAEEEEAAAQTsIkAGtstMM04EEEAAAQQQQAABBBBAAAEyMNcAAggggAACCCCAAAIIIICAXQTIwHaZacaJAAIIIIAAAggggAACCCBABuYaQAABBBBAAAEEEEAAAQQQsIsAGdguM804EUAAAQQQQAABBBBAAAEEyMBcAwgggAACCCCAAAIIIIAAAnYRIAPbZaYZJwIIIIAAAggggAACCCCAABmYawABBBBAAAEEEEAAAQQQQMAuAmRgu8w040QAAQQQQAABBBBAAAEEECADcw0ggAACCCCAAAIIIIAAAgjYRYAMbJeZZpwIIIAAAggggAACCCCAAAJkYK4BBBBAAAEEEEAAAQQQQAABuwiQge0y04wTAQQQQAABBBBAAAEEEECADMw1gAACCCCAAAIIIIAAAgggYBcBMrBdZppxIoAAAggggAACCCCAAAIIkIG5BhBAAAEEEEAAAQQQQAABBOwiQAa2y0wzTgQQQAABBBBAAAEEEEAAATIw1wACCCCAAAIIIIAAAggggIBdBMjAdplpxokAAggggAACCCCAAAIIIEAG5hpAAAEEEEAAAQQQQAABBBCwiwAZ2C4zzTgRQAABBBBAAAEEEEAAAQTIwFwDCCCAAAIIIIAAAggggAACdhEgA9tlphknAggggAACCCCAAAIIIIAAGZhrAAEEEEAAAQQQQAABBBBAwC4CZGC7zDTjRAABBBBAAAEEEEAAAQQQIANzDSCAAAIIIIAAAggggAACCNhFgAxsl5lmnAgggAACCCCAAAIIIIAAAmRgrgEEEEAAAQQQQAABBBBAAAG7CJCB7TLTjBMBBBBAAAEEEEAAAQQQQIAMzDWAAAIIIIAAAggggAACCCBgFwEysF1mmnEigAACCCCAAAIIIIAAAgiQgbkGEEAAAQQQQAABBBBAAAEE7CJABrbLTDNOBBBAAAEEEEAAAQQQQAABMjDXAAIIIIAAAggggAACCCCAgF0EyMB2mWnGiQACCCCAAAIIIIAAAgggQAbmGkAAAQQQQAABBBBAAAEEELCLABnYLjPNOBFAAAEEEEAAAQQQQAABBMjAXAMIIIAAAggggAACCCCAAAJ2ESAD22WmGScCCCCAAAIIIIAAAggggAAZmGsAAQQQQAABBBBAAAEEEEDALgJkYLvMNONEAAEEEEAAAQQQQAABBBAgA3MNIIAAAggggAACCCCAAAII2EWADGyXmWacCCCAAAIIIIAAAggggAACZGCuAQQQQAABBBBAAAEEEEAAAbsIkIHtMtOMEwEEEEAAAQQQQAABBBBAgAzMNYAAAggggAACCCCAAAIIIGAXATKwXWaacSKAAAIIIIAAAggggAACCJCBuQYQQAABBBBAAAEEEEAAAQTsIkAGtstMM04EEEAAAQQQQAABBBBAAAEyMNcAAggggAACCCCAAAIIIICAXQTIwHaZacaJAAIIIIAAAggggAACCCBABuYaQAABBBBAAAEEEEAAAQQQsIsAGdguM804EUAAAQQQQAABBBBAAAEEyMBcAwgggAACCCCAAAIIIIAAAnYRIAPbZaYZJwIIIIAAAggggAACCCCAABmYawABBBBAAAEEEEAAAQQQQMAuAmRgu8w040QAAQQQQAABBBBAAAEEECADcw0ggAACCCCAAAIIIIAAAgjYRYAMbJeZZpwIIIAAAggggAACCCCAAAJkYK4BBBBAAAEEEEAAAQQQQAABuwiQge0y04wTAQQQQAABBBBAAAEEEECADMw1gAACCCCAAAIIIIAAAgggYBcBMrBdZppxIoAAAggggAACCCCAAAIIkIG5BhBAAAEEEEAAAQQQQAABBOwiQAa2y0wzTgQQQAABBBBAAAEEEEAAATIw1wACCCCAAAIIIIAAAggggIBdBMjAdplpxokAAggggAACCCCAAAIIIEAG5hpAAAEEEEAAAQQQQAABBBCwiwAZ2C4zzTgRQAABBBBAAAEEEEAAAQTIwFwDCCCAAAIIIIAAAggggAACdhEgA9tlphknAggggAACCCCAAAIIIIAAGZhrAAEEEEAAAQQQQAABBBBAwC4CZGC7zDTjRAABBBBAAAEEEEAAAQQQIANzDSCAAAIIIIAAAggggAACCNhFgAxsl5lmnAgggAACCCCAAAIIIIAAAmRgrgEEEEAAAQQQQAABBBBAAAG7CJCB7TLTjBMBBBBAAAEEEEAAAQQQQIAMzDWAAAIIIIAAAggggAACCCBgFwEysF1mmnEigAACCCCAAAIIIIAAAgiQgbkGEEAAAQQQQAABBBBAAAEE7CJABrbLTDNOBBBAAAEEEEAAAQQQQAABMjDXAAIIIIAAAggggAACCCCAgF0EyMB2mWnGiQACCCCAAAIIIIAAAgggQAbmGkAAAQQQQAABBBBAAAEEELCLABnYLjPNOBFAAAEEEEAAAQQQQAABBMjAXAMIIIAAAggggAACCCCAAAJ2ESAD22WmGScCCCCAAAIIIIAAAggggAAZmGsAAQQQQAABBBBAAAEEEEDALgJkYLvMNONEAAEEEEAAAQQQQAABBBAgA3MNIIAAAggggAACCCCAAAII2EWADGyXmWacCCCAAAIIIIAAAggggAACZGCuAQQQQAABBBBAAAEEEEAAAbsIkIHtMtOMEwEEEEAAAQQQQAABBBBAgAzMNYAAAggggAACCCCAAAIIIGAXATKwXWaacSKAAAIIIIAAAggggAACCJCBuQYQQAABBBBAAAEEEEAAAQTsIkAGtstMM04EEEAAAQQQQAABBBBAAAEyMNcAAggggAACCCCAAAIIIICAXQTIwHaZacaJAAIIIIAAAggggAACCCBABuYaQAABBBBAAAEEEEAAAQQQsIsAGdguM804EUAAAQQQQAABBBBAAAEEyMBcAwgggAACCCCAAAIIIIAAAnYRIAPbZaYZJwIIIIAAAggggAACCCCAABmYawABBBBAAAEEEEAAAQQQQMAuAmRgu8w040QAAQQQQAABBBBAAAEEECADcw0ggAACCCCAAAIIIIAAAgjYRYAMbJeZZpwIIIAAAggggAACCCCAAAJkYK4BBBBAAAEEEEAAAQQQQAABuwiQge0y04wTAQQQQAABBBBAAAEEEECADMw1gAACCCCAAAIIIIAAAgggYBcBMrBdZppxIoAAAggggAACCCCAAAIIkIG5BhBAAAEEEEAAAQQQQAABBOwiQAa2y0wzTgQQQAABBBBAAAEEEEAAATIw1wACCCCAAAIIIIAAAggggIBdBMjAdplpxokAAggggAACCCCAAAIIIEAG5hpAAAEEEEAAAQQQQAABBBCwiwAZ2C4zzTgRQAABBBBAAAEEEEAAAQTIwFwDCCCAAAIIIIAAAggggAACdhEgA9tlphknAggggAACCCCAAAIIIIAAGZhrAAEEEEAAAQQQQAABBBBAwC4CZGC7zDTjRAABBBBAAAEEEEAAAQQQIANzDSCAAAIIIIAAAggggAACCNhFgAxsl5lmnAgggAACCCCAAAIIIIAAAmRgrgEEEEAAAQQQQAABBBBAAAG7CJCB7TLTjBMBBBBAAAEEEEAAAQQQQIAMzDWAAAIIIIAAAggggAACCCBgFwEysF1mmnEigAACCCCAAAIIIIAAAgiQgbkGEEAAAQQQQAABBBBAAAEE7CJABrbLTDNOBBBAAAEEEEAAAQQQQAABMjDXAAIIIIAAAggggAACCCCAgF0EyMB2mWnGiQACCCCAAAIIIIAAAgggQAbmGkAAAQQQQAABBBBAAAEEELCLQIpdBso4EUAAgYACmzcXynfAIt4H+/XrId+yd+/e8tWr82Vj5MihHTpke5c7+PXixStMS+r7Dy5r/qpDh5yRI4eYHzPbK9176ql57gEW6celk1LDeeedovff86TVq9ft3Vsme8aPH+O533TbQNMLGw4qp+vneo7FqM20LdOdLTsFceiwTMdrr30gP43hy8Tpc2fsUdnwnBrf8irXrddZxtiNKfBXwGt/gJemVQVtKECFcki/nj0vs8DlDShTE/XO6O2ajsirAwFa9Pf/KzxrMLrkuTPwtkqvAtfAUQQQQKDVC7j4QgABBBBwuWbPft7hkNQXwrecosstWrRcP1E2glr6K6ne9Pjx1wRtxSggnezQ4RR/ld9006OlpWVGYdkIaSwjR14sNUsleg3GubLz1VcXe1bru62De46l1U1BTDu8alW+4PibuH79pqhcbAa759SY1ikVyjwWFGw3Tgm8MX36vXo9cg2YlowEx7PCoA15Fvbd1rsh/wn4HjLd8+ST82Rc/sqrd0afO2ndtBXPncbU+E6oLuy73/P0aDl71sk2AgggYHkB1oFb/V8xGAACCERFQNbWZs++2reqp56aLystss45fvxor6NyiteeyF9Onz5ZVmkC1yOLWoELGEevuGKW9F9e6v03OmysLt533wuy1rRo0aPG8rWUlD7IWVdcMbug4A2jKt8NKSP1yIk33SRJ2Pvr5psfk6qMar0Pm71udVMQuw67/WcJkgDKcr0h6V4zXKev6p966u+efPIWmSwzS7/7PC9yvTYpKteAXORyMci3FDCdUM8a5UT9upKdcg3It3FpGcWigqPSkNGi6YboyaUo9chyumyblvHcKbby0rRk5J3xbCha21FxjlZnqAcBBBBoNQKWT/kMEAEEEIhEQGU9J8BKjm/T/tZ2/O33rUFxj9Erf4tRxgqSVwFZGdaXjr32e7ZrlJF1M2O/0WLQ0+UUvXXPdWCjHq+NVjcFEXZYX4qU6+G8827xWqXXZWSnHNIvGE9/LzfPl8bUeO703JZ1e73bUm3QSTHmTu+GrI56VhV4WwXHqCGShoxK9Balq8YefxuyDK6ryiK8b5mQOqM+TGNqZMOrUb0zvvu9ipm+VO+A6ensRAABBKwtwDOxWs1fK+goAgggEJKAvlInS4j+lvVkv35IXygzKjeWdmVVUNa+jP2eG/ohfdHYc7++PXu23MTrkGplddH3KHsCCIjYzTc/KgVkgffVV+81XUiXnXJIX6uUwlFBltoWLfqHLCxL07IsLHcQBOikfmnJKXofZInV33USoBKVQ1FpSL2TMhDpldyI4busLfuj0hmVUVMGAQQQQCDWAmTgWAtTPwIIINAyAvov9L63cHv2xriTVi9sHJJsLDFAgo2ex4z9+oZ+36xse95Y61lGqpV4LHvkhmrP/WwHFdD/HiEpV/87QoDyklelmMyR19wFOCXoIZk4fU4l7+kPZPI9Rb9xWpqWwhIvo94Ho8VoNaRnYKk2KJSeco3/KIyeyEa0OuNZJ9sIIIAAAi0lQAZuKXnaRQABBFpewFjy0p8F7dmhAFlIT7Z6TvY8xXNbP12SQ9Dg4XmWzbfljws6lwRgyZaBNaSAscIZuGRIR2Va9b9f6IHQ91y9h0awnD59ipTR30brWziSPdFqSI/r0hO5GgP0R97VrK+oG0PzLBytznjWyTYCCCCAQEsJkIFbSp52EUAAgdgK6CEq6I2yspwoN8H6/t5v3Od8331zPDsqYUCyhFSu30ftechzW5aR9QJeN1p7lmHbS0APWka49Trq+1LmSL7Vn5HmW4PpHiNa+97hLHuaF0u16CtfemH9yVj6nqj8jG5DeqoX3gD/Oej4ct36PpQuup2Jig+VIIAAAghEIkAGjkSPcxFAAIHEFdDDiSQWfwt6etfll35JCL6/98tRfTVSEq9Rg4QBybTGocCDlwwscU5SRywWCQM33UqPLl68Unpu+sm0piOSKZa/X8i36dGwdxr3z+ufeu1Zjz6Vcs3It77f2I7uLEe3IYHS/ySkB13PERnb+iF9WdvYqW9EtzNelfMSAQQQQCD+AmTg+JvTIgIIIBAPAeN+Wnm+kXyOjuRYSbAhNWws9sq7gvVzJQxIppXMbPqeSa/K5XT9Ta08HMtLxt9LPXMaEdRfsVjvlz+I6IlRVne92tL/GuIVFPWXkiFDvcC8Kvd8GfWG9D8J+cvA8ocefYlYL+bZE9mOeme86uclAggggECcBfh84DiD0xwCCFhZQH7D9o0NIQ1YpYbANyEbzUmMWbXqeXnvrvx+r39LGJb4KhFLfhrreEZ50w1pSxYn5XR5ELTkXvkpxfw9Csu3BjlFRiSnSwyWRxn7Foj6HhXAwI2q1KA4BYEb8j0axQzpW3lIe2QtWmbN6xTZYxoUJTfKpSWdFzqVP454Vev7MhYNSVCXKKu/6df3rgfpuXRDOq+Hf88uxaIznvWzjQACCCAQfwEycPzNaREBBCwroK8XRTI8lRrUA5j8ri83ysov8VKt/lu+bMu3w/GY/K4vqUB+6ffNA179l8Q7apSWgSU/SM6R1hXzs16Pfrq0Lu1K9vaqPOovVQADN6pSg/oUBG7L9GhIvKY1xGinv6DovpYmi5vcJhCVDByLhkRVLnXJ8FK57/TpLZpen7HoTIwmiGoRQAABBBQFyMCKUBRDAAEEgguoREr9/bT+6lKpwd+5/va7137HSHyVFCo5Vn6nlyQgLyXW6qu7xl3TpjVIeJDMICXldEk7vvnB9Cxjp5wug5KAJCvSBQVvGPtjtKECGP8piNFg41mtXDD6XwdM7xaWa0yOytUl3xFm+Ng1JNeGTL300+salv8ipFG5tn2HFrvOxHPuaAsBBBBAwEuADOwFwksEEEAgfAH5Hdp0KcmzxsABTKUGz9rUt/Vf8aV+WZjVV8MkDMiGHl0WLXpUCvirTc/AcjRwWvZ3upylB28J0l7xw98pYe9XAWypKVAclMTIoFeRYlVhF5MLw+tc/blQspRq2jdhN1ZZI8zAsWtIOilTL0PzCuruOyPkRuimJ117Djx2nfFshW0EEEAAgTgL8EysOIPTHAIIINDyAhJXJIvKqqz+zl6JBPLUqwDdMuJxv355AYr5OySn69FXMrBvuPJ3lg33y7zIqGXtscXHrk+T56cuyd9KpFey3+kca/qtn6KHxkj6H7uGhFfP5/rtzXonA6/0xq4zkRBxLgIIIIBAhAJk4AgBOR0BBBBIRAFZ2pLAqf8GH6B/Ek31dBq0ZIBKVA5JKxI/JG8EXoNVqcrCZfSEpi9LqgxTSupxVP0UxWr1YsaKrtSv+McLI1KqNORbJtYNGY+wNprW87ARj439shF5Z0L6c4bpArtnf9hGAAEEEIiWABk4WpLUgwACCCSQgHtp9zHP9S5/nTM+iSe6Ocq3OX3NWboU64Z8m24te/TMKXOnGDilpD606MYn/WOKPWOhfiHJvcQu1/IA31JA+qNy1fmbkVg3pPdQeI1O6lejvFXYt0uRdMaYSt9qvfZs3lzktYeXCCCAAAKxFiADx1qY+hFAAIEWEwgpbXre+BqLHktO05OGPBwrFvVboE7jLalGQgs8KCOkBS4W0lHJh/r9zEYsNJZ29QAZoDY9istVp5jhvaqKQ0P6u+KlXf0/DWnRn2GEndHfPqDyH6BuZSy5e5nwEgEEEEAgFgJk4FioUicCCCDQwgJGXAl6k7OxDBWH38L1R2rJL/1yn3YLAyVk88Ybp+WOcWON119PZWb1MkZY9VdSfb8Ev5///Fb5KT0xArnxXCjjovJXofREz35BrzrTGuLTkD4KPfrqLUp019+J7dmrCDtjWAWlMPrg2TrbCCCAAAIxFSADx5SXyhFAAIGWEZDf6fVFOXnYlUQaf52QQ3ocjWKO8teW7DcyHg/H8qckb5zWY+Spp14TIAbLIf0xZjLL+kT7q1B9v/xtwmj0ySdv0bshp+spzgh1gSvUk7Oe6wKX9D0an4ZkIDI0ufIlBvtbBI581MZ/gHKpB/gPUP7YoR+Nz3+AvubsQQABBOwpQAa257wzagQQsL6AvP9W/11/1KhL9N/1vcYsN2rKIUk+Ukx/MpZXgVi8NB6OFXR9LBatJ36dMhf651RJNJJEaqoksUoOSQEp/Oqr90Y4KInT0oos//bvP1VP3RKAjcRr3NisGNL0YtI3054H6GrcGpI+6KMTRhmvGBqDNboXlc48+eTNUrn+lwWp0Khc3xAiCcDSB3kp/6n6LkR7leclAggggEAUBfh84ChiUhUCCCAQqcCpp/5OpQp5LlHQYnJvs6QpCUvyW7gkHPklW/boNzzLHnnukfyUSvTQFc9fweU3fsVhBh1jLAoo9k1lCsLrnj5xMmUyQVdcMUvWe0eOHKo/ukxmbfXqfIlPUrMU81ytVWxLniMdoKQsKcvs6BeJXkz/64nsUbxC9MtMsqWcqBib49yQNCehVyK6HvhlW/4T8DKJyqiFQv5CIfMoDclFJYbCq7cleyQV6/MoSoH/AhX0gpRqFy36h9cQeIkAAgggEECADBwAh0MIIIBA6xaQX7sLCuZJiJLf6SVQybf+y70+Kvl1XAKA/h7deI5TfmWX3/tDXSeMZw9bvC2ZuFWrnpc7ivU7aSUveS4kysRJapK7jn3DWxg9l6gm35KxZV6kXc8ajOVc473Bnkf9bUthie7SYbnepGZ/xTz3x60hvVEZqXRMuicvZduzJ7Idxc5I5TKPMol65NZTt9Gc9ME9jyaPpDbKsIEAAgggEAsBp8vlikW91IkAAgggkFACkkk8fwXXV6USqod0xlRAXzM0DvkmVeMQGwkrILlaFvCN/wDlGezyH6DXXxwStvN0DAEEELCeABnYenPKiBBAAAEEEEAAAQQQQAABBMwFeCaWuQt7EUAAAQQQQAABBBBAAAEErCdABrbenDIiBBBAAAEEEEAAAQQQQAABcwEysLkLexFAAAEEEEAAAQQQQAABBKwnQAa23pwyIgQQQAABBBBAAAEEEEAAAXMBMrC5C3sRQAABBBBAAAEEEEAAAQSsJ0AGtt6cMiIEEEAAAQQQQAABBBBAAAFzATKwuQt7EUAAAQQQQAABBBBAAAEErCdABrbenDIiBBBAAAEEEEAAAQQQQAABcwEysLkLexFAAAEEEEAAAQQQQAABBKwnQAa23pwyIgQQQAABBBBAAAEEEEAAAXMBMrC5C3sRQAABBBBAAAEEEEAAAQSsJ0AGtt6cMiIEEEAAAQQQQAABBBBAAAFzATKwuQt7EUAAAQQQQAABBBBAAAEErCdABrbenDIiBBBAAAEEEEAAAQQQQAABcwEysLkLexFAAAEEEEAAAQQQQAABBKwnQAa23pwyIgQQQAABBBBAAAEEEEAAAXMBMrC5C3sRQAABBBBAAAEEEEAAAQSsJ0AGtt6cMiIEEEAAAQQQQAABBBBAAAFzATKwuQt7EUAAAQQQQAABBBBAAAEErCdABrbenDIiBBBAAAEEEEAAAQQQQAABcwEysLkLexFAAAEEEEAAAQQQQAABBKwnQAa23pwyIgQQQAABBBBAAAEEEEAAAXMBMrC5C3sRQAABBBBAAAEEEEAAAQSsJ0AGtt6cMiIEEEAAAQQQQAABBBBAAAFzATKwuQt7EUAAAQQQQAABBBBAAAEErCdABrbenDIiBBBAAAEEEEAAAQQQQAABcwEysLkLexFAAAEEEEAAAQQQQAABBKwnQAa23pwyIgQQQAABBBBAAAEEEEAAAXMBMrC5C3sRQAABBBBAAAEEEEAAAQSsJ0AGtt6cMiIEEEAAAQQQQAABBBBAAAFzATKwuQt7EUAAAQQQQAABBBBAAAEErCdABrbenDIiBBBAAAEEEEAAAQQQQAABcwEysLkLexFAAAEEEEAAAQQQQAABBKwnQAa23pwyIgQQQAABBBBAAAEEEEAAAXMBMrC5C3sRQAABBBBAAAEEEEAAAQSsJ0AGtt6cMiIEEEAAAQQQQAABBBBAAAFzATKwuQt7EUAAAQQQQAABBBBAAAEErCdABrbenDIiBBBAAAEEEEAAAQQQQAABcwEysLkLexFAAAEEEEAAAQQQQAABBKwnQAa23pwyIgQQQAABBBBAAAEEEEAAAXMBMrC5C3sRQAABBBBAAAEEEEAAAQSsJ0AGtt6cMiIEEEAAAQQQQAABBBBAAAFzATKwuQt7EUAAAQQQQAABBBBAAAEErCdABrbenDIiBBBAAAEEEEAAAQQQQAABcwEysLkLexFAAAEEEEAAAQQQQAABBKwnQAa23pwyIgQQQAABBBBAAAEEEEAAAXMBMrC5C3sRQAABBBBAAAEEEEAAAQSsJ0AGtt6cMiIEEEAAAQQQQAABBBBAAAFzATKwuQt7EUAAAQQQQAABBBBAAAEErCdABrbenDIiBBBAAAEEEEAAAQQQQAABcwEysLkLexFAAAEEEEAAAQQQQAABBKwnQAa23pwyIgQQQAABBBBAAAEEEEAAAXMBMrC5C3sRQAABBBBAAAEEEEAAAQSsJ0AGtt6cMiIEEEAAAQQQQAABBBBAAAFzATKwuQt7EUAAAQQQQAABBBBAAAEErCdABrbenDIiBBBAAAEEEEAAAQQQQAABcwEysLkLexFAAAEEEEAAAQQQQAABBKwnQAa23pwyIgQQQAABBBBAAAEEEEAAAXMBMrC5C3sRQAABBBBAAAEEEEAAAQSsJ0AGtt6cMiIEEEAAAQQQQAABBBBAAAFzATKwuQt7EUAAAQQQQAABBBBAAAEErCdABrbenDIiBBBAAAEEEEAAAQQQQAABc4EU893sRQABBBBAAIEoCVSX15Ws37evqHJ/cYVU6XS4nFrNrj6jumVkpXYd3DFK7VANAggggAACCAQXcLpcruClKIEAAggggAACIQoUr9+/5s0ff1i1c8eG/U5Ho9PpStLSr/atbbhfShKWGNxnVNeB43oPGNc7PTstxEYojgACCCCAAAKhCZCBQ/OiNAIIIIAAAkEFVr257YPH8/cXVzqdjiRJv9rar98MrEViZ1MwPmzigKOnj8jJywraBAUQQAABBBBAIDwBMnB4bpyFAAIIIICAicB3H5b874Fv9xVXuaOvLPaGloH1JeJDzx5w/PXHsCZs4ssuBBBAAAEEIhYgA0dMSAUIIIAAAgg4HFXldS/P/HrtRyVOp7bwG0kGltuk07JST73jxH7j+kKLAAIIIIAAAtEVIANH15PaEEAAAQTsKFC4vuyfl39RU1Gvvd03GhlY3ics7xkeMnHgKXecZEdQxowAAggggEDMBMjAMaOlYgQQQAABewisWFA47/61tRW17vf9RjMDS6LuMqjjpCfOSctOt4clo0QAAQQQQCDmAnw+cMyJaQABBBBAwMICyxcUvnT7N9UV9TEa456Ne968ckFteU2M6qdaBBBAAAEE7CZABrbbjDNeBBBAAIGoCWxfV/7GfeuiVp2fiiQGL7nrQz8H2Y0AAggggAACoQmQgUPzojQCCCCAAAK6QFV5/SOXr6yK2Qqwp/MPH29Z8/QKzz1sI4AAAggggEB4AmTg8Nw4CwEEEEDA7gJzbvsuPgFYh17z9Mo9G3bbHZ3xI4AAAgggELEAGThiQipAAAEEELCfwNcf7vrmo51xHvcndy6Oc4s0hwACCCCAgPUEyMDWm1NGhAACCCAQc4HX718f8zZ8GijduHvjW/k+u9mBAAIIIIAAAiEIpIRQlqIIIIAAAggg4HAsW1BcWlQtn4QU0lf73LaHjOrSPi9T+wxhh2Pr6pLtq3eEVIMU/vLpZQMnDg31LMojgAACCCCAgCFABjYo2EAAAQQQQEBJ4MMXtyqVay7Ud2SXk68c2ndUl+Yd+v8eUVNeu/Kl/NUv5ddVqn70UUVJ+daPC3qf2P/gqniFAAIIIIAAAqoC3AutKkU5BBBAAAEERGDbuort6yvUKc68Ydjl/zrBJwBrFaRnpx13xbBL/zuxy6CO6hVyO7S6FSURQAABBBDwFSAD+5qwBwEEEEAAAb8C8jQsv8d8Dky7c+TPfjXAZ/dBO9rlZf3iydPVY/DWTzYfdD4vEEAAAQQQQCAUATJwKFqURQABBBCwvcCGlXsVDU65cshR5/RWKSwLwuc/eUZObpZKYSkjt0MrlqQYAggggAACCHgJkIG9QHiJAAIIIIBAIIENq/YFOtx8TJ6AdcqVITy8SmLw0dOHN58d5H9LN4SwFh2kLg4jgAACCCBgMwEysM0mnOEigAACCEQgIG8GVjx7/FVDFEsaxQ47e6DiUjAZ2EBjAwEEEEAAgVAFyMChilEeAQQQQMC+AlXl9YqDP+ykXMWSnsX6j+vj+dLfdm2F6nOk/dXAfgQQQAABBGwrQAa27dQzcAQQQACBWAnkDsrJyE4No/aeI7urnFVRVKZSjDIIIIAAAggg4CtABvY1YQ8CCCCAAALmAuvVHojVJqwALE3Ku4LNGz54r3xK8ME7eIUAAggggAACqgJkYFUpyiGAAAIIINA2OwUEBBBAAAEEEGjVAmTgVj19dB4BBBBAIK4CvYZkq7RXtD7Me5XLipSeudVxYGeVblAGAQQQQAABBHwFyMC+JuxBAAEEEEAgIoHqirq9RQfCqGL76hKVs9Ky01WKUQYBBBBAAAEEfAXIwL4m7EEAAQQQQMBcoFOPDPMDPntXv7nVZ1+QHTXltQVLfgxSyH04KzdHpRhlEEAAAQQQQMBXgAzsa8IeBBBAAAEEzAU65WW0yVJ6S/DSFwuqy+vMa/Gzd81/v6+pqPVz8KDdHQd1Oeg1LxBAAAEEEEBAWYAMrExFQQQQQAABBByOQaPbqzDI7dCvz1ytUlIvs3ND6bKnvlIs3/2onoolKYYAAggggAACXgJkYC8QXiKAAAIIIBBIYPgpqmuwa5cUz71dKQZLAH51+sJArXocS8tKYx3Yw4NNBBBAAAEEQhMgA4fmRWkEEEAAAZsLDDtZNQML1Jr/bf33bz7ZF/D5WBuXbHtl+nuKd0FLnb1P7G/zKWD4CCCAAAIIRCLgdLlckZzPuQgggAACCNhN4IXb1i5/s8jpaHQ6HE6HK8mpbSQ1v3T+9NLldGr722Sljjin94hz+nYf/NN91NXltZJ+v/1fgTwLOsnp0upxNP90yj/NzS/dh4yjUvnkORewDmy3S47xIoAAAghEUYAMHEVMqkIAAQQQsIXAhpV7H/71avUM7I7KjU6nS56nlTu4vQRaeQT0ro2lEnol67pTdHP61aOv/wycOzL3rMen2UKZQSKAAAIIIBAbAaWHW8amaWpFAAEEEECgVQqUFlWH1++airofV+9sWtSVZBz614jfjg39JM5AAAEEEEAAgZ8EyMA/WbCFAAIIIIBAYIFt6ypeu2/DptV7wwqwgesOfjQrNzuXJ0IHd6IEAggggAACgQR4JlYgHY4hgAACCCCgCxwor3/5vk1/OW/lhlX7Wsqkorj807sWtVTrtIsAAggggIA1BFgHtsY8MgoEEEAAgRgKLJ2/QwKwfORvi//leOPb+TLO428/NYajpWoEEEAAAQQsLUAGtvT0MjgEEEAAgcgEtq6rfGl2wcZV++SJVi1y/7Nv9ze9nS/vKD7u9tN8D7EHAQQQQAABBIIKkIGDElEAAQQQQMCOAnLz87zHti1+sdD9MUWJJeCOwY5jicGJNS30BgEEEECgdQiQgVvHPNFLBBBAAIF4Cnw6f9d/Zm+uqqhv8Zuf/Y264O21shr8s9tP91eA/QgggAACCCBgKkAGNmVhJwIIIICATQV+XHdgzuwf1q/cnzg3P/ubCS0GO13HzDzDXwH2I4AAAggggICvABnY14Q9CCCAAAJ2FKgsb3j9scL35hS7P7+3dQhsfvt7eZfy0cTg1jFd9BIBBBBAICEEyMAJMQ10AgEEEECgZQWWzNv9/OytiXzzsz8ficHyjuWjZ57prwD7EUAAAQQQQMBTgAzsqcE2AggggIDtBH5YV/XsrG3rVpZJknRG/OjnfqM6bVm9KzzE/if2HjCu91f//W7Pxj0h1bDl7e9k7XrszLNCOovCCCCAAAII2FOADGzPeWfUCCCAAAIOufn5lUeL35mzMyo3P/cf1ekXdw97835ZlQ3hq+ugDt0Gdeg9qlvvkd1z8rLkzP7j+rxxxVu7Q4/Bci4xOAR6iiKAAAII2FXA6XK57Dp2xo0AAgggYF+BN1/YLQHYffOzfPCvK8kh/xrKOrC2ob90PxOrab+2U/t84Oaj7m2no1GWjWVn57z0KX8aesTJ3UqLqmad+YHTqe1P0o5qC8vuDSnWaFSu1zPxzqOPPLuf6QTUlNdKDC7duFsr2dRWU9N65XoN7qN6H5ra6nlC/zEzJ6RmZZhWy04EEEAAAQQQEIGE/dAHZgcBBBBAAIGYCHy7ovK6KRv+PavoQHlD5A2ceVX/G187VgKwVPX+4xsUK2yXm+kvAEsN6dlpU5+c2HlgJ8XajGJFn2xcMuOluopqYw8bCCCAAAIIIOAlQAb2AuElAggggIBlBSrLGv5+8/ZbL9m8ZV0UUuLAUR3uXHj8mVcNaJOdKmSyCLzqze2KdkeeY74CbJwuMXjyk2eHEYP3b9z5yYwXicGGJBsIIIAAAgh4CZCBvUB4iQACCCBgTYH5z5dedsrGD+bvi3x4HfMypj807LpnRnfMa2PUpr4InJ6VOvqXg40T/W1IDJ705DmdQl8Nlhj8KTHYHyv7EUAAAQRsL0AGtv0lAAACCCBgdYFvVhyYMXnLk7N2yEOwIhxrm6yUiVcd8peFxw47uYtnVVXldSuVF4HH/mpwRnaa5+n+tiUGn/NEWDF4047PiMH+WNmPAAIIIGBvATKwveef0SOAAAKWFqgoa3zg5pIbL966ORo3Pw8/qfPMuaMnzjjE1+zjF3/w3Wm6RxaBxygsAhvnpmenn/PEpE4DOxt7FDf2b9qxdMYL3BStyEUxBBBAAAH7CJCB7TPXjBQBBBCwl8Dc5/f96uTN78+TD/6N9KtTXsaNzwy7+pHDZcO3LlkEVs/AQ07qqbgIbDSUlp1+9hOTOoYZg58nBhuSbCCAAAIIICACZGAuAwQQQAABqwl8taLqt5O2PXbv7sryxgjHJjc/T5rR+/73xwwe3d5fVRKAqyvq/R312n/CFYd77VF5KTF44hOTw4jBZZt2fDHjOWKwCjJlEEAAAQRsIkAGtslEM0wEEEDAFgJy8/Osm3b94aKignU1kQ/4qJM73jV3+OQZfQJXtUT5RuhhZ/dtn5cZuDZ/RyUGT3hiSngxeNnVxGB/ruxHAAEEELCdABnYdlPOgBFAAAGrCrz6XNl5J21bOK8i8gF2zku/5dnDrntkaOceJjc/e9a/fEGh+iLwiWEtAhvNSQw+6/FpYcXgkuXEYMORDQQQQAABewuQge09/4weAQQQsITAmuU1l5xT8si9eyO/+bltdvLUGT3/vuiooaPbqdi8+3iBSjEpMzyCRWCjCYnBZ4Ybg1dc/Ux9RRQ+GNnoDBsIIIAAAgi0RgEycGucNfqMAAIIINAkUF7WePdNpVdfuHPTutrIUUad3GHW3COmXd1TsarlC4pKi6oUC0sGViwZuJjE4DMeP7fDwIM+nCnwKfrR8k0lK67+NzFYxYoyCCCAAAIWFiADW3hyGRoCCCBgcYH/Plc5ZVzJ228ciHycXfLS7nhuyA3/GNilR7p6be8oLwL3Hdml76iu6jUHLikx+PRwY/Cqa/5FDA7My1EEEEAAAWsLkIGtPb+MDgEEELCmwOrltb88e/ff79lfEfGTn+Xm5/Ouzn108ZGHjskOCeubD3eqLwKfdOVhIVUetLDE4NMePy+81WBicFBeCiCAAAIIWFjA6XK5LDw8hoYAAgggYDGB8jLXg38pf+uNA0kOl9PpSnJon37kdLiSnC7tp6PRKZ/755Sf2r9uni+1/dpR7Sztp/vl2FNyLr+lZ9ceaWEoPXz5yk2r9mqNas01teWu33gpbWn7DxnZ5fJ/nRBGE0FPqS2v+WDGK/s27nC32zxeGaY2RmHRxqtDNfdQg3I4XDkDug+6boLslK/2I/oFbYgCCCCAAAIIWEaADGyZqWQgCCCAgPUFHn+k8qVnD8iDr4xoJwlThq29DDEDd8tLu25Wz8PHZIWntnHl3od/vdKdM4Nn4Kl3jhpxTpAPWAqvG3KWOwa/vF9isDtvN2XdYBlYC8bub90tLTM9a2BeuxH9Oh5/eObAHmF3hhMRQAABBBBIfAEycOLPET1EAAEE7CuwYln9yuV18r1+bb0WfbWF3+bwJhthrQNn5SRNurjTBdd0i4T1octXb1q1RyUDd8zN+OM7Z0bSVtBzJQZ/OOO/+zftbFr3VlgH/omx6W8HTapCmtG9fdczx3Q/78TkrDZBm6YAAggggAACrU6ADNzqpowOI4AAAtYXKNze+NyztfNfr5W3+3rmXs9t/RbfUNeBjzkle/qt3cO7+dlw36AtAq9232msL0EbNz9rL50/3Rqt3Qt97p1HxW4R2OiSxOAvH/pg6zvfhLcObERiEdbX2FMyM7r//MRu540jCRvIbCCAAAIIWEMgxRrDYBQIIIAAAtYQ2L7d9cjDNfPm1ulJTBJdtL665qXeMDv3iDGZkVe4bEGxYiXtc9vGIQBLZ+QRWWNnniVR9sd3vlXsW+BiDZVVRc+9u+u1j/recmG7448MXJijCCCAAAIItCIBngvdiiaLriKAAAIWF3j4oboTjz/wxtz66I4zMzvpwms6P//hgKgE4D1F1cveVM3Ap1w5NLpjCVzb6JkT2g2M2icwSVuShDff9tTWWXMCt8tRBBBAAAEEWpEA68CtaLLoKgIIIGBZAVn+/e302vX5DVFc+NWxTpuSc9WtXbJykqNl99Y/tyhWlZGVeuhJuYqFo1Js5d1v798o7wqO8lfpwmXVm7b1f/j3yVlto1w11SGAAAIIIBB3gaj/Qxn3EdAgAggggEArF/h+reuMs2ry87UnPEf3q1te6tRLOkQxAMsi8BfKN0Ife2H/jOzU6I4oQG3L737nhyjdCO3bStWm7Zuv+1tDxQHfQ+xBAAEEEECgdQmQgVvXfNFbBBBAwGoCEoDPO7+2vDwm49pRVPfHi7YV5FdHq/YP5mxTrEoWgY/91QDFwpEXcwfg7yKvJ0AN1QXbt1z3twAFOIQAAggggECrECADt4ppopMIIICANQUkAJ97fl2MArBOJp+odOPFWyvKGiIXPFBe//n8EsV64rkIvP7l1Vvejm0A1kctMbhw9nOKAhRDAAEEEEAgMQXIwIk5L/QKAQQQsL5AWZlj2vn1MQ3AOqLE4D9dvLUy4hi8eM72qgrV53WNPKd3fKZw74adax76MD5tSSv7Fn5R/tmXcWuOhhBAAAEEEIi6ABk46qRUiAACCCCgJHDZbxviEID1rmxeV/3io7uVuuWnkCwCSwb2c9B798ize3XIi9Pjo5bdvdC7+Ri/Lpr1LG8MjrEx1SOAAAIIxFCADBxDXKpGAAEEEPAn8PQzri+Wu/wdjcX++S+UfruiMuyaQ1oEPvWqwWE3FNKJm9/+fu/GXSGdEnnhxsqqnY++Enk91IAAAggggECLCJCBW4SdRhFAAAFbC+wvczz49+g/BTqo6ZP3qr6b17eqpQt2+O403RPPReBvnv7ctA9Bd3YYfkh77btfSmZG0MK+Bfa/93ldSUTr6r51sgcBBBBAAIH4CPD5wPFxphUEEEAAgZ8Envq3q6zcEd5HAY8ck1pR3rgxv+6n6pS3tqyrXjxv7/gpHZTPaCq4dP4O+VQkxQ6fFq9F4IK3vq8sKVPslT6SvDNHdDtxaNfjh3oKVGwsKnrt013vrvTcGXR73+uLulxzQdBiFEAAAQQQQCDRBMjAiTYj9AcBBBCwuIAsAj/179DGmJXtvPiyjMnT0vN6Jhtnbsive2vugXfeqJRIbOwMurHg+T1hZOAF//wxaM16gX6jOsXtncDbPi5Q7JUUa9O9/bDbJnUccYjvKVkD8wbden6fy09dd8uzBwoKfQuY7tm/cCkZ2FSGnQgggAACCS7AvdAJPkF0DwEEELCawLvvOWQRWP3rokvTF33SfsZ1bT0DsJw+aGjq9be1m7ek+wnj26jXJkvB8nws9fJS8jP3IrDiKaddNUixZITFastrtn2imoFzBnQ/7vkrTQOw0Y307h2HPfvHLmeMNvYE3pB3BVfwgOjARhxFAAEEEEhIATJwQk4LnUIAAQSsK/DO+yE8Cuve+9veMrNtdo7fG36zc5Luf7zTWVMz1cE+mLdXvbCUfH+O6tJo/1Gd5DukysMurL4InJKVPmr2L1KzlN732/fayW0H5Cn2quqrdYolKYYAAggggEDiCJCBE2cu6AkCCCBgC4GF76sO85bbMqacm6ZSeuZ9Hc+cohqDv11RoVKnXmbdyv3b1qs+Tfq0qwaq1xxhydINqo+DPuy6M9rktldsLiWrTf9bfqlYuHrTNsWSFEMAAQQQQCBxBHg/cOLMBT1BAAEErC+wdJnqGMeMTb7k8nTV0g7H7/+vw1crqncW1gY9RW6HlhhsrCw7Hdq6dNNLp8e2wyU75z+2NWiFeoEOudot2QWr9jjcJ+o73dUadRobctDlNHrQXP7gwloZ+b/mUlpntC9n00bJGqUPK27TvV2vCcP1UxV/Zg7s0fmMMXsWLg9avurr9UHLUAABBBBAAIFEEyADJ9qM0B8EEEDAygJLv1Ad3e+uCyEAS6VZOUmX/67d7JuVVkf/75LNEimTHI1OpytJi6DaT3cu/emlHGrer9TnvcVVj/96mZzidDY2Ve4OulorWpT9qS29Wr1pd2B2JTW3ZRyS/U0dcx9q2t9cefPL4B3rHWIA1mvscPwRKhlYCssnJKV27xy8H5RAAAEEEEAgYQS4FzphpoKOIIAAAjYQkIdCq3wNGZo09uiQ/0p7wvi2KpXbqkynEX3CGK9kYMWz6vmUYEUpiiGAAAIIJIwAGThhpoKOIIAAAjYQ+G6t0iDDCMBSrywFDx+j9OQnpU5YolC7Qd3DG0dyZghP2w6vCc5CAAEEEECgRQTIwC3CTqMIIIAAAoEEcnICHQ1wbMBQpWdoBajBYocUHwftO+rkbDKwrwp7EEAAAQSsIEAGtsIsMgYEEEDAYgI9e4T5z5N8VJLFKCIczu41P4RXQ21JaXgnchYCCCCAAAIJLsDvCgk+QXQPAQQQsKPA9sLG8Ia9MT/4c6HDq7mVnlW2cUcYPT+wUfUjkZOyeA92GMCcggACCCDQkgJk4JbUp20EEEDAbgLt1G5yzl8bZgbeRAY++JIq/mTdwTuUXu1+d4VSOYcjfUBvxZIUQwABBBBAIEEEyMAJMhF0AwEEELCFwOGHKg1z+bKGsjLt03FD+pJF4JLC+pBOsXzhPV/+uCfE26HrK6p2vbtcRSa9fy+VYpRBAAEEEEAgoQTIwAk1HXQGAQQQsLhA755KAywvdz3/bMh3Nb/6XLlS7TYr9P1DC+sqqtUHXXDvSw2VSuXTB5CB1V0piQACCCCQKAJk4ESZCfqBAAII2EHg2GNUR/ncM7WF20O4I/rL5dXvzqtQrd1O5co27Vj70ELFEe96d+Xez75TLNx2+BDFkhRDAAEEEEAgcQTIwIkzF/QEAQQQsL5Ar56Onj2UhilLwVdfcaBc7Y7ojfl1N8/YrVSvLQttf/er1Te/HHQ1eMsj8zfN+q+6UNZxI9QLUxIBBBBAAIEEESADJ8hE0A0EEEDALgJnna460nX5DRdfUBF0NXhDft2MX+2sKA9h0Vi1BxYqt+PTdR9P+1vhO1/Wm90XvePdVavOu6f4tU/VR5xz+s94KLQ6FyURQAABBBJHwOlyhfzQkcTpPT1BAAEEEGh1At+tdZxypivJ2eh0uIzvJKe2naTvcW8bL3NyHJdcln7RZRnZOU6vwRYXNvzrkf1vv3FAK9xUg1Tr0CuXwkmOn15q+x2NWdlJ/Yamu9t1aD+b2pJD8q+hK39Vmd4H7Wdzl2S/50u9rU556Z3z0qUJvTl3WzIE+ZKfWqPuJqQSfUN+NhptNR8yymv1N9egOchZ7nq07aTmbb2MU3Mz6nTt27ijvqLG3aJ2VtN4m9pyN/pT5/WjGlSH4X07HnWIVC7NyMcg7f+yoLGyyqNXP02ENvDmb7eq1rTWitPR++83tB0+WGrgCwEEEEAAgdYlQAZuXfNFbxFAAAErCEw537VsuWQ5z3zlznv6noMzsERHSWLZ2Y4xY1OGHJY8ZGhKeVmjpN81y2q+XFkjeUxEtGCmloEnXdxx+q25pohL5u1+4rbNeurTfgbMwH/491EDR3cwrSeeO7/51+ff/euLUDNwU6p3aze7Nc9F86i12XHLG9PkmYEzhw/q/dCN8RwpbSGAAAIIIBAtgZRoVUQ9CCCAAAIIKArc+AfntF8olm0qVlHu+mhx7ZIPmpcom5Y3Q6tESk+6pJO/c15/rNDfIa/9A0d1SIQALL0acv7I9S+vkU8z8uphrF92vSbE+Yt1h6gfAQQQQAABZQHeD6xMRUEEEEAAgSgJ/OxoxzFjtXt84/z1y2u6dOuRZtqoLALvKlL9NKYJVx1iWkn8d6Zlpx8z84w4t9vx3FMy+FSkOKPTHAIIIIBA9ATIwNGzpCYEEEAAAWWBh/+alJOtXDoaBbvmpU6+2O8i8Mfz9yg2MmhU+0EJcBe00dueJw44ZMLhxstYb2T079n50nNi3Qr1I4AAAgggEDsBMnDsbKkZAQQQQMCvgHxI0p13xPXfoDse65mZk2zaoe9XlK9dWW56yHfnyRf18t3ZsnuO+v3Jmd1z4tCH5Mw2ve+ZkZzVNg5t0QQCCCCAAAIxEojr7x8xGgPVIoAAAgi0RoHzz006b1qc/hn646y8fkMz/Cm9+lixv0Ne+zvlZQw/uYvXzhZ/WVm8v7KkLNbdkAB8yMPXp3b3u5Ye6w5QPwIIIIAAAlERiNMvH1HpK5UggAACCFhM4KG/JschBp86ud2pU9r5owtpEXjijER5J7AxnMrisg9mvGy8jNGGBOB+D1/P24BjxEu1CCCAAALxFOC50PHUpi0EEEAAAW+Bv/81RZ6ONfeNeu8DUXp95Jg2N8w2/zAkvYWP5pcqNiWLwD+b1F2xcHyK1ZbXfPKn+XXaRwTH8KvNgB6H3HNFGivAMTSmagQQQACB+AmwDhw/a1pCAAEEEDAV+NtfUy6/zPyduqblQ9r5zYqqOY/u9nfKzsLaJcpPwzpnRl9/9bTU/o//NH/vxl0xbb3LueMGPPwHAnBMkakcAQQQQCCeAmTgeGrTFgIIIICAucAdt6c+9WRadnZMljNffHT3X28uMm34FeV3ArfJShl+cmfTSlpq5+d3vbfzy+0xbV1ugc69bEJyVpuYtkLlCCCAAAIIxFOADBxPbdpCAAEEEPArcNppyZ9+ljF1WkzepLNo/v6rJ2+pLGvwbF4WgdVvhD71oh5ts2PSN88uqW8XvLW24O216uXDK9lQWbXztY/CO5ezEEAAAQQQSEwBMnBizgu9QgABBOwokJPjfODB9CWftJ06LTXq49+8rvqayQWb86uNml9+tMTYDrwhi8DjL+oZuEw8j279uGDp3e+H1GKb7u1Tsvw+GTtAVbte+6ihoipAAQ4hgAACCCDQugScLperdfWY3iKAAAII2EGgrMw17/XalcvrP1xcm+RwOfVvp8vY1ja0l42iIUeTnFoZeSm3Uyc55af2r5vnS22/ozErO+m2x3ofMSazsrxh+il5DGIcAABAAElEQVRrqyrq9Qrlp6OpQr0erXJ3hdr+yTN6T5rRJ0HYSzfsWnjV3PqKaveotfE6tVFLh5vHKy+1zjftl6GlZqcf8+ilOQO7l28slhNLv9zcUF61/bWl7hqax9ssrI/aXWGTdu6lZ3a/bEKCDJ9uIIAAAgggEKEAGThCQE5HAAEEEIi5wMrldUXbG4u2Nziaop2Wbz9eVL1pncTj0DKwHu1+f29PuRFaPhbYnaJ/yrqeLz0z8GNfHJMgN0LLg6AXXPiSfBpwU3TX0n7wDHzMY5d0GtHXa57WXPPU/q82N//tQEPQceSnXrmhkZKZceird/OuYC9AXiKAAAIItFIBMnArnTi6jQACCNhdoLys8a6b9n26+IBAaLFNbR3YiHn6srAR8wKsAx87qetv7hmUINzzL3xp78bdRkx1r3gHycAj/u+cXhOG+/Z/75ebv/rdU81ugTKwNNf90rNYCvY1ZA8CCCCAQGsU4P3ArXHW6DMCCCCAgCM7J+mBxzuef0lWrC3kRuhYN6FY/yd3Li7d6Pdznkwr6XXWMNMALIU7jOjXfng/07N8d+5+7cOGCu3PDXwhgAACCCDQ2gXIwK19Buk/AgggYGuBP9zWfuZ9HWJHIIvAnXuE8yipqHdpzdMrNr69LqRqux8/eMRtkwKccsivxwc46nlIHhC9+/UPPfewjQACCCCAQCsVIAO30omj2wgggAACTQITpmY+9mJXedhVLEQSZBF4w1vr1jy9MqQBthvQ7aiZ5wQ+pX0oS8F7XvuApeDAnhxFAAEEEGgVAjH5jaFVjJxOIoAAAghYRuCosemPvth1wJC06I7oqJM7JsIi8J4Nuz//22chDS01K33sfeelKnwYUp/LT1WsWZaC97AUrIhFMQQQQACBBBYgAyfw5NA1BBBAAAFlgYFD0x59sVt0Y/DpF+Uptx+rguXF5W9euaC2ojakBo5/7KK2ue1UTpGl4HbK7wpmKViFlDIIIIAAAgkuQAZO8AmiewgggAACqgJZOUnPvNnjjCnReUrWkFE5Q0YrxUjV/oVerqa8duENC0MNwCNvm9huYDf11kJcCv5AvWZKIoAAAgggkIACZOAEnBS6hAACCCAQvsAt93W5+tbO4Z/ffOaUq3s1b7bY/35450d7Nu4JqflDf31cnwlHhnRK+xH91ZeCS3lXcEi4FEYAAQQQSDwBMnDizQk9QgABBBCITODcS9r9aVbXzAiektV7cObQll4E/uyvn2/5+IeQJPqedcShvzkupFP0wr0vP03xLHlXcOnrixULUwwBBBBAAIEEFCADJ+Ck0CUEEEAAgUgFzpia8/c5PcKOwbuLqvNX7o+0ExGcn//Whq9f/i6kCtoP7Dr8D6eEdIpRuJ22FNzfeBl4o/S1xTwgOjARRxFAAAEEElmADJzIs0PfEEAAAQTCFxgwNP0/H/brNyQ9jCoOlDfMuuz7T+fvDOPcyE8pXF28+M6PQ6ons3vOyf+8QOVB0P6q7aW8FNwonxX83Jv+6mE/AggggAACCS5ABk7wCaJ7CCCAAALhC8hTsv46p9cxp4T5lKx/3bbxX/+3Ifzmwzpz14Y9b92wKKRT5ZOQjrt/qvwM6SyvwrIUnKO8FLx37gd1Jbu9auAlAggggAACrUKADNwqpolOIoAAAgiEKSAx+M+P9ew3JCO885cu2PnItWsPlNeHd3qoZ8mDoBf9+ZNQHwR99MwzOwzqGmpbvuV7XX66705/e/Y8t8DfIfYjgAACCCCQyAJk4ESeHfqGAAIIIBAFgR2FdZvXVYdd0Zcf7rn/0q/lHcJh16B+4utXvLN7Q6l6eSl51O/H9TxxYEin+CssS8Edjzvc31Gv/WXvfc5SsJcJLxFAAAEEWoUAGbhVTBOdRAABBBAIX2DOPyK9a3fb+so7p63etq4i/E4onPnenz/dFWIA7jfhsCG/GKlQt2qRvtdOVi3qcLAUrG5FSQQQQACBxBEgAyfOXNATBBBAAIHoC8gi8KL5UXjCc1VF/QOXffX5gpLod9Fd4+qX1q59a1NIlXc7qucxM88I6ZSghdO7d+xyxuigxfQCLAUrQlEMAQQQQCChBMjACTUddAYBBBBAIMoC771RFq0aJQY/f1v+W//cEq0KjXo2Ldm65G8rjJcqGx0Gdhl3/zkqJUMt0/PyEHJ1Ke8KDtWX8ggggAACLS2Q0tIdoH0EEEAAAQRiJVBR1vjG83ujW/tbj28pLaq6+C+HRqvanetL3/3z0pBqS8tKP/b209KyI3oQtL8WZSm48xlj9ixc7q+A5/6y95am5naq27TVVVHhdLgyhg+Vn6kD+qT175PcvYtnSbYRQAABBBBIEAGny+VKkK7QDQQQQAABBNQFVi+vLS6sL9muP7HZ5XQ6JH1lZycNHJo2YGiaPA5aqnrhH3vmPLonydkoh5wOR5LDveGU7eaXTleStq39dMiGx0vZNvZrZZpfajudrp6Ds/7wzMg22Up/Sq4urytZv69kw1557LP0Sm9dmus+uEN6dtq86z+qq6zR22r66dQ609Sxpt42vXRqY3FMmnNBx0ExTJg1JaXf/PxOQ8PdYRm11rS7h42iLZj6WPT9uq0OJfvlZUq3Tm2OG93m9BNT+veVPXwhgAACCCCQIAJk4ASZCLqBAAIIIBBcoGh7w0eLapYsqlmzokaPWx5JTI+sWk6TVDZgSNrwMW3en7fvQHljLDKwRMFOeenTHxrec0i2v36v/ag4/6OiH1bt3F98wCnxuzlgG0FXhqAFb3eobtqpR9+AGfj4macOnDjUX6PR2r/l3v/seW+5nsOlb+5OhpaBjXGl9u/TdupZ6aefFK2+UQ8CCCCAAAKRCJCBI9HjXAQQQACBOAmsXF734jNVSz5wR189krnXZv1lYAlg0jP34qQWid0pLprrwO4KG9tmpfz24eEDR3f0VKgqr1v95ralL27aX1ypr5e6l0+jk4EP/8WRY68/wbO5GG3LUvC35/85KhlY+6uELAv375M547KUYaqfvRSjcVEtAggggAACZGCuAQQQQACBhBYo3N74f3+qWL28ToudJkupxh25B60Dh5SBx5zcbndhzY/rJbI234Hsbksq0ZdqtSh48L3QegZ2h1vXhXcfPmZSDx1x1YJti55Yt6+4yh2/5aymHB6VdeC+J/Yd/8CEuM3Wllkv7l243D3SiNaB9Qys1eN0ZUyZ0GbGr+M2BBpCAAEEEEDAV4DnQvuasAcBBBBAIFEEHn24+tQT969arr/pN1a9+vk1uXe8MHjUye3Da+Cl2795aeY3svz7+K+XvXL713uLq8KrJ/BZHQd2PuH28YHLRPdo9vCB0a1QaquZ91bFFb93VVRGvWYqRAABBBBAQFGAdWBFKIohgAACCMRVoKzMdfUVB1bJ8m/z2qy+kGjcnauvzUZ+L/ThozPven6QPrbHb9386YJd0pDnwm/T46n8rwN7PBTK/bwr97OjorsOnJ6V+ssFF8XoQdCm87r73eU/zP6Poa2ZhPhMLPcp2gKy5zqw+6UrObNN27/ek9S/n2nT7EQAAQQQQCCmAqwDx5SXyhFAAAEEwhGQAHzhBQdWxnj5V+/Z+VfnGl286t5+V96TcMEsLSvt7CcmxzcAr9gy6yWDJeobrsoDVX+81bVjZ9RrpkIEEEAAAQSCCpCBgxJRAAEEEEAgrgISgH91wYF1+Q1xaPWw0VmHjTnowc4nTO5y23OHts1OjkPrik2kZ6dn5x7UScUTwytWubFwcywDsN4ricE1d/yFm6LDmyPOQgABBBCIRIAMHIke5yKAAAIIRFnAHYCr1uVrT7qKw9fEi7v6tjJ0dM6tzx3WOS/d91CL7CkvLn/vxnfj03R9RdXaax+NT1uNm7fUPfj3+LRFKwgggAACCBgCZGCDgg0EEEAAgZYXuPuu2vx4BWAZ7eFjskzH3GdI5l/mDus9ONP0aPx3Fq8pWvP0iji0W3Dvfxsqq+PQkN5Ew+fL6t9YELfmaAgBBBBAAAERIANzGSCAAAIIJIrA++83vDE3to+A9hrqK48We+0xXrbNTrl77vBjJ5ksFBtl4rmx5umVxasLY9pi6afflX72XUyb8K28fs5/HDwm2teFPQgggAACMRMgA8eMlooRQAABBEIRkLugb7yhNpQzolD2rTm7vl9RHqCi39wzaNKM3gEKxPPQJ3ctjmlzWx6ZH9P6zSuvrKyf1xLtmveGvQgggAAC1hdIsf4QGSECCCCAQGsQeOaZ+vJy7XN04vz1ymPFdx38WCyvDkye0adLXsbL922qrqjzOhTnlxXF5Rvfyh84cWgs2t357sqakr3OECcgvX+vrONHpPfvnZzVpr5kd33BD1VLVzXs2B1SDxvemJ8yZbIjK1HuPA+p8xRGAAEEEGh1AmTgVjdldBgBBBCwoIAsAv/7mZAfBJ2VnTRqbPqgoanyEb4S3kq213+94sCOwtDupl67skKWgr2eDu1FfOzkbr2HZD5w2Vc1EcTg9rlth57UIyM7Vf/I3B0bSrevKqmpCG3p+8unl8UqA7+zymvUgV9mHTuiyzW/SO3e+eBix7e/+qKar/PLHnte8vDBh/y/qqxsWLQoWWIwXwgggAACCMRegAwce2NaQAABBBAIJvDa6w2yCKz+/pzcHslXXps1cVobn4o7fbW8+rlHS79ZccDnkN8db7+wM3AGljN7Dcm6Y+6of177beH6QPdOm7bRd2SXk68c2ndUF6+jNeW13/6vYOmTX9dV1ngd8veyoiQmS8HVJXv3f1Wgvgace9Nl7c74mb9Opg8b2uWp2fvue7xm0RJ/Zbz2N75PBvYi4SUCCCCAQKwE1H/fiFUPqBcBBBBAAAHJwOoI48an//d/ncwCsFbH8LEZD83Ju/pWr/XJQNWv/HDfrsLgKbRTXsYfnx0x7KQQapZWp9456vJ/neAbgOVQenbaqF8OvfKtqV0GdQzUv4OPbf244OAdUXhV+kkIj8Lq89ANAQKw0Zv2N13V5rQTjZeBN1ybN7t27AhchqMIIIAAAghERYB14KgwUgkCCCCAQPgC27e78vNV3wl89tSMu+7PCdrYtEvaZ2YnPXhLSdCSegG5HXrclOAfCCwPi+41JPvbJbsUq51258gR5wR5pJYk4UteOvuV6QuL1vh9SLVnc1s/2bzwqtdlzdZ9T3Vj84ZLXifJPeHa/kanU99wyV3i2k73Cm+S7HcX0HdqN5DL50M4tTK1JaWeTQTY7nLpxLbDBwco4Hko508zGkp21n+z1nOnv23X5587p0zxd5T9CCCAAAIIREuADBwtSepBAAEEEAhTYOH7jYpnDh6aohKA9drOmJqzOb9m3gt7VSpf+cG+cVOUFng3rFSqUBqdcOMRRwULwEbfJv/15Bd/uaC8WOlG65I1he6460py6hnYHW61DKy91H42ZWBtvzsDu+OuOwProVc/XTuqlXSXMbrifyO1W8eul57t/7jJkeyrL917xZ9MDvjschVs9tnHDgQQQAABBKIvwL3Q0TelRgQQQACBkATWfi9LkUpff7otS6lcc6GLf9dJVoObXwX63x/Xqb5/eMOqfYEqaj4mT8A69lcDml8F/19ZDT56+vDg5Vq0ROfzTgm1/ZT+fVOPPFTprB2qi/ZKtVEIAQQQQAABPwJKvxn4OZfdCCCAAAIIREFg23alDDxqbKp8h9ReVk7S1Es6qJyyq0jp+czb1lWo1CZlxl81RLGkUeywswfm5IYW8o1z47ORfVw4KT392NEq3WMdWEWJMggggAACkQuQgSM3pAYEEEAAgYgEvl+rdC/0yaemhdHMseNVU+XaFcHvQ64qV/3gpcNOyg2jt/3H9QnjrPickpzZJq17pzDaShnQV+msykqlYhRCAAEEEEAgMgEycGR+nI0AAgggELFAefDsqbUx+NBwnmHRf2jwJ12pj+CAWgbOHZQjnwOsXq1RsufI7sZ2om1kDOgVXpecWZnhnchZCCCAAAIIxEKADBwLVepEAAEEEIi+wJCh4WRg6Ue/IVGLwdvWKeX1NmEFYOmqvCs4+nBRqrG2ZHd4NbkqWOANT46zEEAAAQRiIkAGjgkrlSKAAAIIRF2gvEzplmnfdivCPdG3KvlsJN+dNtlTt0P185O8QBorVJ835nUiLxFAAAEEEIiFABk4FqrUiQACCCAQfYHCwjAz8M6iumj1Rj4cWKWqovVlKsV8y5QVqT5zy/fcOOwp++yrMFqpXbpC5Sxnv34qxSiDAAIIIIBAhAJk4AgBOR0BBBBAIFKBnj3kQ22Df334vtKjm70qWrpYNVV26RG1+5CrK+r2FoWz+Ll9dUJ/PlDZZ1978QZ9KTdC1yxdGbSYVoC3DSsxUQgBBBBAIFIBMnCkgpyPAAIIIBChQM+eShn4o0U1YTT0eQgZOPjbhnsOUX3K9NL/FITa25ry2oIlP4Z6VjzL71v4ReVXG0Jq8cAb77gqlf4c4DxyWEg1UxgBBBBAAIHwBMjA4blxFgIIIIBA1AQOO0wpAxcVNr74bFVIrRbk17w/T+m25D6D26rULO8HbpOl9Jbg1Qu2hroUvOa/39dUhLPWrdLzaJUpnPVcg/L7e+sLfqh84TXFpp3DjlQsSTEEEEAAAQQiESADR6LHuQgggAACURA45mjVf4wef6Ryfb7qJ/TKo7Duv1n11uLDxii90VdGO2h0e5Uxy+3Qr89crVJSL7NzQ+myp8J5t616E1EpWbdjz9brHlSJwXWbfii9/k7VRjMznUeSgVW1KIcAAgggEImA0h+zI2mAcxFAAAEEEAgsoJ6BK8pdv/nl3n+91GFwsM9JkgA88+rignU1SkvMDsehyhl4+Cldvl2yK/CI9KNbVu+ee/vqaXeNDFpYAvCr0xcGLaYXSMtKO+WBibLtHprLZ0N2uDxG7d52v3Y6jMJameYTm8rn3/JsY6XSMnt1wbYffnNX7s2XtR0+WE42/aqc+27ZP59Pcnr2xLRg086knx0T6DDHEEAAAQQQiJ6A0+XS/hXkCwEEEEAAgRYU+O302kWLGpK08OZyasFJ+zZeNm24D8l2drbjrvtzxp2a4a/Dm/Jr7rt5pwTgJEejpL8kp/zUwpj7pVG/+6VTayUzO+n55cP91ea1/0B5/Q3HfuyuUKtc66dWv1659tL500vZdvQb2WnaXaPa5/m913rVS/lfPPVVbYX0tnnUTvmnuWn47hjZvN9d+WHnDx97/QlevYr85dZn3t/+7Hs6fhO4G8c9UncH3OPSxiuqTm28bYYNbnfGsVnHjUjKahpd3aYfa77OL5/7rmvHTreMdmIzjiHvPTQpk/rg7CTWgSOfRWpAAAEEEFAQIAMrIFEEAQQQQCDGAsuWNf7igqYQGDQDu2OVa9SY1LPPbXPi+IzsnJ9upf508YHPFlW+P79MykiXFTPwhIu6XHZLL/UhvnDb2uVvFjndAVsaCpyB9T6MOLv3Mb8a2H3wT/dRV5fXblyyTQLwrg2letBVzMCT51zQcVAX9d4qlqwpKV193j0hZWCp+eDhu8OtFuB1eZFRysDJRx6e+uB9iv2kGAIIIIAAAhEKcC90hICcjgACCCAQBYGjj07q0cNZXBjCrUlrVtR+uVJb6e3eIzmvR3JleaPHwm9oXZp4cbeQTjh6Uq5k4JBO+ep/P3z91hZJuX1HdpHcKJ8DXFZSIS8Pvm85eJXdj+oRiwAsDad379jrstO2P/de8E5Eu0TyRb+KdpXUhwACCCCAgF+Bn/527rcIBxBAAAEEEIi9wB23p4bXSElhw5crajatC/OJyhMu6hrqJwMPGt3hyJPCXIn9cfVO+d5fXBneYEf8dmx4J6qclfvzE5Iz/d5hrlJDGGWSfnZ0Ek+EDgOOUxBAAAEEwhUgA4crx3kIIIAAAlEVOO205LFj4/2vUtvs5J9fkxvGOM69aZDihySFUbm/UwZOGJJ7VE9/RyPfn5LVZsCtF0Rej3oNzszM1BuuVy9PSQQQQAABBCIXiPdvG5H3mBoQQAABBKwq8MCD6dnZ8gSl+H397t4+mdnJYbTXKa/NWTP6h3Fi2KfI46CPvv74sE9XPLHj8Ud0Pzf6D9zy13ran29zZmX6O8p+BBBAAAEEYiFABo6FKnUigAACCIQj0LOnc+btaeGcGdY5J03uOPaUdmGdqp100oV9jjypa9inh3rihCempGWnh3pWGOX7Xjul8xljwjgx1FPSbvh90rAjQj2L8ggggAACCEQoQAaOEJDTEUAAAQSiKTDt3JRrr4tHDD5kSMa1s3pH2PUL/3J4j8HZEVaicvq420/uNKizSsmolOlz7ZTs4QOiUpW/StJvvC7ltFP8HWU/AggggAACsRMgA8fOlpoRQAABBMIRkAw8dVqYz8dSbE8C8D0vROFO5jbZKdc+MybWMXjc7ScNmjhEcWhRKZac1WbII7/rFLPV4Iwbr00lAEdlqqgEAQQQQCB0ATJw6GacgQACCCAQY4H7Hsi45LJYrQYfPjrz3hf6h/c2YN9xSwy+5t9j82K2GnzS7ScNjm8ANsZ4yC0X9rxmqvEyKhvOzLaZD/6FABwVTCpBAAEEEAhPwOlyhfBhjOG1wVkIIIAAAgiEITDv9dpZd1dVVDTK5+jKZ+pq306Xsa1taC8bpWY5lOTUCshLeaZWklN+av+6eb7U9jsaJ13ccfqt4TwIOnD/q8rrFty/dtWb292ddPdB64n0sKkPTnlp0nn984GNzutD0MYlnxuckZV61oOn9RiZF7jpWB+t2rR966wXqjdtd6u6qbWxaOOSpjVzTVsfpnt2tM43v3RPinE0/fRxba+6nIdgxXrKqB8BBBBAILAAGTiwD0cRQAABBFpSoHB7461/qly9vE7Lk5Fl4G55qTfMzj1iTAyfQvzdhyWvzPyqprLWSH1hZ+B+J/Yef8e49OxYLYaHOqml7y7b+dyb9TtKtdAbegZOP3JIm0vOTx12WKjtUh4BBBBAAIGoC5CBo05KhQgggAACURaYP7fm8YcPFBc2mC2lGquRfteBs3McUy/pMOXijpk54XwMUkiDkQXhz/6z+bMXN9dW1LhDe8jrwL2O6nb0FUf1GBn9xeqQBmJaeO/CL8o//bJy6ZeK68DyvuKMY0e1nTYhpX9f0wrZiQACCCCAQPwFyMDxN6dFBBBAAIFwBBbMrf5oUe3Hi6v1NWGVe6Fz85KnXdr+tCk5WbFPv55DkiS89D8Faxb8uL/kgH4/tsq90IdP7H/Y2QN6JmT69RxdQ8WBis++qt30Y/WmbfLTcaDSWPeWSUnp3imle5eMYUPShx+aNuxQzxPZRgABBBBAIBEEyMCJMAv0AQEEEEBAVaBoe8Oq5bWrl9duzK/btK7W412pTevA3XukDBqaOmJsxrAxbQYMjccH6gboevH6/fkfFf6waveO9aVyj7TPm5ldvUZ2bZ+bOeikXr1Gdk+cO58DjIhDCCCAAAIItHYBMnBrn0H6jwACCNhaoLysUcKwEMjicPeeKbk9UhKZY19R5f6iSncPXX1GdUvkrtI3BBBAAAEErCpABrbqzDIuBBBAAAEEEEAAAQQQQAABbwE+H9hbhNcIIIAAAggggAACCCCAAAJWFSADW3VmGRcCCCCAAAIIIIAAAggggIC3ABnYW4TXCCCAAAIIIIAAAggggAACVhUgA1t1ZhkXAggggAACCCCAAAIIIICAtwAZ2FuE1wgggAACCCCAAAIIIIAAAlYVIANbdWYZFwIIIIAAAggggAACCCCAgLcAGdhbhNcIIIAAAggggAACCCCAAAJWFSADW3VmGRcCCCCAAAIIIIAAAggggIC3ABnYW4TXCCCAAAIIIIAAAggggAACVhUgA1t1ZhkXAggggAACCCCAAAIIIICAtwAZ2FuE1wgggAACCCCAAAIIIIAAAlYVIANbdWYZFwIIIIAAAggggAACCCCAgLcAGdhbhNcIIIAAAggggAACCCCAAAJWFSADW3VmGRcCCCCAAAIIIIAAAggggIC3ABnYW4TXCCCAAAIIIIAAAggggAACVhUgA1t1ZhkXAggggAACCCCAAAIIIICAtwAZ2FuE1wgggAACCCCAAAIIIIAAAlYVIANbdWYZFwIIIIAAAggggAACCCCAgLcAGdhbhNcIIIAAAggggAACCCCAAAJWFSADW3VmGRcCCCCAAAIIIIAAAggggIC3ABnYW4TXCCCAAAIIIIAAAggggAACVhUgA1t1ZhkXAggggAACCCCAAAIIIICAtwAZ2FuE1wgggAACCCCAAAIIIIAAAlYVIANbdWYZFwIIIIAAAggggAACCCCAgLcAGdhbhNcIIIAAAggggAACCCCAAAJWFSADW3VmGRcCCCCAAAIIIIAAAggggIC3ABnYW4TXCCCAAAIIIIAAAggggAACVhUgA1t1ZhkXAggggAACCCCAAAIIIICAtwAZ2FuE1wgggAACCCCAAAIIIIAAAlYVIANbdWYZFwIIIIAAAggggAACCCCAgLcAGdhbhNcIIIAAAggggAACCCCAAAJWFSADW3VmGRcCCCCAAAIIIIAAAggggIC3ABnYW4TXCCCAAAIIIIAAAggggAACVhUgA1t1ZhkXAggggAACCCCAAAIIIICAtwAZ2FuE1wgggAACCCCAAAIIIIAAAlYVIANbdWYZFwIIIIAAAggggAACCCCAgLcAGdhbhNcIIIAAAggggAACCCCAAAJWFSADW3VmGRcCCCCAAAIIIIAAAggggIC3QIr3Dl4jgAACCIQrsGFTxboNlfnry3fvbpQ60tIa6uqTUlMa6+ucw4dnZrVNO/usbuHWzXmtUuDr1cX7dh8oWL+ncm+1IyXJUdfoSEty1GqXx4jjezXWN55wev9WOTA6jQACCCCAQKsVcLpcrlbbeTqOAAIItLzAO+/tfWFO5foNyWV7JexmOt09cjq0/9fqdLqSUipd9W31n/qh1LTqbnnVZ09KOXdap54901t+APQg2gJL3978+dyN+34oT9/XIFdCVVJj20an/tPpvgiaLg/tkCuz0XEgK6ltn+x+I7qd+4ex0e4L9SGAAAIIIICAtwAZ2FuE1wgggICKwNZttbMf3Pnewuz62vSklApXfWZySoVKBjbyjzOlsk//6vPOy7r88kRcHD59yDpxMHrbmFyT3JDemFwtPyXbex5qSK5NaUhrSK4xfhoF9EP1ybWpDan1yTWpDWlNFTpd9cl17p36Ie2n0ZZWudNRl1yX1pBSl1yb5nHI2bv23++MV5mg+JfZXVL57O2f7/16b3qd1rgxnOAZ2J2EpXxdkiO1f87EG48eMjI3/v2PQ4t7i/Z/cd7fDZl9zuQOrvp9zhTtZ5K2bRza60zu6Krf60xJSU6atOTOOPQt6k18uWRtp7tm7XKkd3VU73K6f7q3m8eoNSjbO50Z3RxVOx3azxpncvsX/5ndrUPYnak6bWKJo02u44DnT6+/vKxoN/iYVx8JuwlORAABBCwgwPuBLTCJDAEBBOIqUFhcO/UXxcePq3/rzS51tRmRtP3jho5/va/umDE/PPPMjkjq4dyWFZD0e/vk//3jzHd2rSlNcwfg8PqT2uhwbip7+4r3Z017ff3q4vAqSeSzlj77Wajdy6mv/fa9b0M9q5WWz3DVf3nfC62083QbAQQQaEUCZOBWNFl0FQEEWl7gngd2HnNc3cplnRobovY8hbI9OX+7r+6sMwu2ba9p+RHSgxAFHrn+479PeKdqW1WI5wUqnv5jxStXv/fojHcCFWqFx3av3BxGr/Nf/iKMs1rpKX2+XV5WtKeVdp5uI4AAAq1FgAzcWmaKfiKAQAsLbNteO+70wiefTG1sSI1FV7Zu6DDx1D1vvsmvv7HQjUmdOworbjp53taPdyY36u/1jmYrzkZX3Yodfxn/nz0lFdGst+Xq2vv/7d0JfFXVncDx+/ZsLwuSkBAQAgjKpmxxr4oIdV/QKlVrq9bpTGf8WKvY1o5FrVVsnS6OWjuKWpXRTm1trVhQEQUUwiaLEcImgbBkIS/7y1vnPIIhkuWd+/K2+84v9fN6c+//nuV7jib/3HvPPdRoq3VFUv+eFLwk3ptDRtBb/ujzvR1lPwIIIIBAVATIgaPCSCEIIJDiAms3NM+8zLV9W0FM+xnwOO7/gTZv3p6Y1kLhURFY8fbu316x2F4fWuE5hl+N7Quu+NPqd3bEsIp4Fb3ixY8jq8rq9W5Z+nlk5xrxrCFbN3Ap2IgDR5sRQMBAAuTABhosmooAAokR+OtbDVdda2lutsen+r+8nHn//ZXxqYtaIhP45+tbFz2w3hyDy7/d2yMeEn73wY/WvB/JXcTdS0vgntqPKyKufcuruh8kjriuhJ8ongrmUnDCR4EGIIBAaguQA6f2+NI7BBDor8Dbi1133eOP0f3PvTXuH3/WHnyQq8G98SR4/4pFu5c/Vh6fBLijq+K+6A9//MHqRdsT3PN+VC9WhC6orY+4gIydeyM+14gnDt26oelQ5FxG7DJtRgABBOIpQA4cT23qQgABgwmIFyDddU/Q77fEv91/XWh/6x+18a+XGvsW+OS9yjfmres7JhZHxdXgjx5cXlPVGIvC41DmCv0rQndtlVgdess/VVkdWnTcwQLRXYefbQQQQCDaAuTA0RalPAQQSCGBmVe0NjdlJ6RDQb/1Fz9rOHCAlaITwt9zpdVVzW/8eK3J3/PRWO91+IMv3PpWrGuJUfm1KyO/EbqjSdte/ShGbUvOYks2r2o6wAp5yTk4tAoBBAwvQA5s+CGkAwggECOBb91xyFWfmAS4o0dtLdaf3q/WLaAxGspoFfvE7R/YvdFfAlq+eWl17r/9fo18fJJEfrGpyt7Y0s/GpFcqtDq0sBILRG967MV+onE6AggggECPAuTAPbKwEwEEVBdYu6HlvffyEq6w7qPssjKj3v6acL3oNuC5R8o8hzzRLTOC0ipeMt4twWtfi0LenhnwKnU7tJgbzvJNPBUcwb8jnIIAAgiEFSAHDktEAAIIqCjwre+2BQLWCHo+tMT173c1fPCRdefuzB27sioqBm3f5Xz8CfuZ5x222iO5sfnhBw5F0AxOia6AuAu64o2qyMoM2k2Wcdmn3jxmxuNn/WTdN8U/V/9h+qibTzKNyw3o/yGc5gssfGhZZC1J1Fltq7ZFpeptCz+KSjlGKcQW9H86/yWjtJZ2IoAAAgYSiOQ3PAN1j6YigAACEQj8fsHhupoBJp03vY4d3/bs0zmDiwZ3r/HKyweIf8T+O+/a8+4/soJ6sut9X9g2fNo46bR435U9cppXNNjmCHrbTXZHMOCzWKy+gM9qtvp87ZotTfO6NUFkdQSDoZ2BHesDWmv3rve8J3ukL3egw2zVAr40s1WUID41vzsooq1poQ1rmknUeCRAFK4F3EFLaL82YkpiLs4/P6/MEjB5daasnizz174/fub1pxyncPKUIvFPx85n71vasmyfpuc1w18s2aU9cP5xZSbtt7vWV+a53Q3mKCwsl6HY7dBiTDueCnYWnZC040vDEEAAASMKkAMbcdRoMwIIxFbgyWf0rXpksQT+c17zLTeeGLZZv/vNsNXfbLrj1mZPa3rY4M6Ap35X/dyCeOfAT788obMBMhvXnVPmlc6BL55TdPWcEplikyFm68aaQ+tc6ZqODDhgDg66sPDf5p8Xtv3/Mn/6qnd2Lnnkk4w22Vln9vjXvr9r6oUjwhaeDAHrX1uT1ks7coKhLucEfeIz66t/Bsg9cig9+JW/DWT4vcv+8MH5d1zQS3kpuFs8Fbz5sRfO+u09Kdg3uoQAAggkTkDHT/TENZKaEUAAgfgJLHilrv6wQ74+s8X7q1/abrkxX/KU00ud/3hnQLqzWTJehH26yi4fTGTUBd58ZouuMkUCPPOhaTIJcEexZ1w88vt/vsqn5wfyipc+1dWkBAY3rt8dtnaR6fpyMsOGiYCDHxjvcWiZfvURw1PBfeBwCAEEEIhMQM+P3Mhq4CwEEEDAUAILXg7dAyz/Ne9B91WX67tBd+hQx3Mv5oirx5K1+D1pb73Fu4IltaIcdqiqua6sQb5Qv0iAH5x29iX6LtKeUJg16T8mydfi214vH5zAyNCK0G3usA1oz8vOPGVo2DARMKBKrdWhRZdtmn8jTwXLTA5iEEAAAWkBcmBpKgIRQEABgcp9noqtg+Q7Ou30OvkrwF2LnTzJee502RxYnPjPt1kduqtf/Lb/+vvPxJPA8vWNuGbY2ZfqS4A7Cp/1rYme4VmSFYmVsbat2y8ZnMCwNXIrQmeeVjLxdqk7nNOC/mVPLk5gjxJSdcmWTxr381ewhNhTKQIIpKYAOXBqjiu9QgCByAR+/ZRL/kS7o/WN13pYAUuyhKefGma1t0kGf745tF4UX/EX2PlJjXyltgLHd35yhnz8cZEz/nXycXv6+Hbv5zoa1kc5MT3UtqpCpvwZP782f0yR1yK1blbtcn23pss0IMljxFPBnz/6P0neSJqHAAIIGEiAHNhAg0VTEUAg5gIfLtdRxTdukM1geyv0gq/Lvm+2oUbHGlq9Vcd+vQLiRmhzrY7L9Tc+FHkCLNpWOqPEnSb7c7li+R693YlzfMeK0GEr9TqOPu4eGH50rey+T8k9aIDkv+8uRHB02Lb1vCs4AjdOQQABBHoUkP1Z2+PJ7EQAAQRSTKC6WnY1LJvd/Yt5kV8E7nC75RbZV54EA5bqmvYU007+7ogboXU0siRt7NRCHfE9hTqGyN4O7W3V9+B6T7XFdt+6V1fLVGAqPPo4ffHMiTLx9mBArA4tE5lKMWlB38b5L6ZSj+gLAgggkEABcuAE4lM1Aggkl4BYEdrvl/2v4qTJLf1v/eTTnBmZspnMypWH+18jJegS2LNBh/k3f3a6rsJ7DB5++uD2LGtrrk3Lth/5dLTk2rXs0Gdblq3NaRMbwZy00M6k//KXbZdp40k3f60jbNKNZ0ne8X9IvdWhBdGILZ808VSwzJQiBgEEEAgnwPuBwwlxHAEElBFYtUbcmSybWtxztzMqMFnZWquOVYejUieFyAp4DnqsmtSCWKYMy5hTC2TL7T3u2h+crol/jP/16TufZfjDv/FY3Gg+5uJjl3+9Doe9Pfz9DgOqDLAemOQYNmblDmqWeqqi46ng0id/LFkyYQgggAACvQmQA/cmw34EEFBOYM06qSV5hIu4EfrM0uyoAM1/fGDF9lZPu83u8LrdoXzLkRb0eux2u9/jcdjtAY8nTXy2u7XRo6VeoBqVVlGIEKg52GL1SSXAInjoNNnb2hWx3fzqqhyJroq3InWNcpxaEizb2nVPj9tidegPn1py3vdn9njUWDuDw4Z9sSeY0Sy1Gl/oqeD9tc7BA43VR1qLAAIIJJsAOXCyjQjtQQCBhAm4GtIk6y4qbtW0r/zuLnli97DSUqf4p/t+9iRcYO2yKvk2XPjNk+WDVYi07Tkk003xVqSuYRPvmLFRIgcWpxxcXq6lRA4s+pJx87XaM891dehtWzwVLBaI5lJwbz7sRwABBCQFZJ98kyyOMAQQQMC4As2Nsmlt6TTj9pKWywpsWy+7/rDfHOz/aliyzTJC3Kal22RuhBZduejn13btUP7JRX6z1G8m9oOp877cCbPPbXLmdnXoY5sFovvA4RACCCAgKSD1k0ayLMIQQAAB4wps+qxZvvFjRtvkg4k0qEBbo+xyZf4c2bvoDUqht9nrX1klc0rnW5G6BgeKpW70tfhTanXonOuv6IrQx7a4FLxp/gt9BHAIAQQQQCCsADlwWCICEEBACYFtO9zy/fze7Tz8Ka9l1MiabU2STT9hjMyjr5KFpUKYdcdBmW7YRvXwQuBBF06UOVfEVKfQ6tDjbrjwiyzZF2uFFog+UCepRBgCCCCAQHcBcuDuJuxBAAEEEEBAh0C6k/sCjnGJFaGdPqlL6COu7uGhgsm3XyAWi5b5EqtDu/ZLLSUlU1rCYzJuvk6yDZlB72ePPS8ZTBgCCCCAQHcB1sTqbsIeBBBQUWDnbtnrwJlOcXmQ68AqTpLe+jxqiuxbkT5etPOfT6wz+4ImLRi0auL/zEHxKf6nWXyBgNVk8Yt9WkAc0jSziNFMIlLUKz4tPvGdFjpLM5m1gPj80bvf6q1JCdy/SW5FaPHcb9e3InVtcHtmRlqLWHYuzJdYHbrshWUz778qTJxBDo+ffe6nL71a3Cp1gTe7fFPToXrnoDyDdI5mIoAAAsklwHXg5BoPWoMAAokS2LtP6sqVaJ4jLfxbTxPVC+qNooC1PpR8RverobY1zeVzNPvszX6xoTV4011e8Znh8qY1+zo+xVGxoTV6jny2Z7o8WmPoM73Zm97kFRumBnfHZ3TbFq3SbHuqZYry5PT6rq+MaWNkShAxrrXbJSMNEWabM1uynTbNz1PBklaEIYAAAt0FyIG7m7AHAQQQQAABBCIR2Ci9IvTA3p/7nXjreZJ1p9cddh1qkAxO/rBxcy6Sfyp45JaPeSo4+ceUFiKAQHIKkAMn57jQKgQQQAABBIwnsP6V1ZKNPvcHs3qLHDiiwGuVXWp79UvLeyvHiPvT9TwVXM5TwUYcY9qMAAJJIEAOnASDQBMQQAABBBBICYGMbftk+uGzhVmOJFgs+4h148flMjUaJWb87K9VZcguN5D9+UbxVLBRukY7EUAAgeQRIAdOnrGgJQgggAACCBhYYMmTyxxiGS+JL0tPb0Xqel7h9PFdv+1je3Bddf3+lMoDrfJPBQf9m3lXcB+Tg0MIIIBALwLkwL3AsBsBBBQTyHbK/vew3S17l6ZihHRXdYG9y2VXqBp57el9Y02+TfYNSaKctc8v7bs0Yx0VTwXLXwoeuWUlTwUba3xpLQIIJIOA7O98ydBW2oAAAgjETmDyab2uUntcpS1NzuP28G1KCvjyxFuK+NIhYDpwWCY6YDKP+fqEsJHiDUlhYzoCWsq2SkYaJUx+gWjxruDy+c8ZpV+0EwEEEEgSAXLgJBkImoEAAkYSqNzrMVJzaWuMBTYvq4pxDQYofsmzK8zipcUSX94sh0SUli79hqQCV0qtDi1wxs65aHdWoYySiMkp56lgSSrCEEAAgaMC5MBMBQQQQCAkcEKejjucFy1uQg2BTgF3s+zLpTtPSb2NyqWfS3aqePYZMpGn3nq+TFhHTFlqrQ4tOpV31+2S3RfvCt7y+ALJYMIQQAABBIRAmIUZMUIAAQQUEZj+tTz5nq4u83xP9hfUMKXu29e+7EOXp12zOzS3WxN33zrSgl6PZrdrni6f7W5t5GjbeefKLhgbplYOSwjkj3G6VjVKBGotVa0yYakdk7Wvxq1J/WG9cuHKyoUrAhbxV6dgx+3mRz6DYvbbfH7x6beEdpi0oGaxpPsDMm4NH3+maZfJRBolZuT5p618ftigA1K3eYeeCt5/i3PwQKP0jnYigAACiRUgB06sP7UjgEASCTgcLX6/VHsqtnf86i4V3HfQkiWuJx6xmaytmi8j9Ev/kV/9Q9/604/s7PgMHSooqTrvXXLgvjmjeTQ92+aSK8/SIDdvNG3KhcOtDquv3ScKtjosAU/AbDcHPH6L3exv91scFvEpDq19vVyraZOrPCmiFj/5oSMQdEulwFqG+OtOaJ57XCZLXtDnMllDn+bQdue/AvUmy4Cgr94k+1tK8ZHVofMG6/hLVlLA9dmIEXd/W7v3R32GHD0ongre+uizU568XyaYGAQQQAAB2Z8uSCGAAAIpL5CV7W6ot8t080CV7Go9YUtbtkxcQswJGyYC0kUizFccBcZMzj+wpE6mQkvAtHLRrrMvGRE2uKDYedH1p4QNW/PHzWFjkipg7/KKhP95Zu2CpRf9dHZSsfSzMUWTTlox+JSBB3bLlFNSsbZpfy2/1clYEYMAAgjI/c0WJwQQQEABgYnjZVe68nrS/vJ3yWuEYeD2VoYJ6DxcMtLWuc1GHAQuvmG0fC3r35MeSIlCzS2yF5YlCotHiOlA4t/Q25pyq0OLkRs59zbJ8UsL+ioefVYymDAEEEBAcQFyYMUnAN1HAIFjAlMm6VgW64lfR+dW1bpq2UqHDJW6Rn2sP2z1W8CbJrXQsahn7xqpK8YyLdq67kCaV+ohWJnS4hATWhFa7qndmDamwFW3Z/0XMa0i/oUXjS+pKxwuWa+4FCwZSRgCCCCguAA5sOITgO4jgMAxgZu+kXvsm3Bb+ypz9h+QvW7cW2Evv3rI75f97/CUqVK3TPdWF/sjEMg6MV3yrGCrf9vGasngvsPK/l7Rd0CyHa1cKrVuUxya/dn/Lo9DLXGuIvRUsNyXuBQsF0gUAgggoLqA7O9eqjvRfwQQUECguMielSWb1gb81nt+fKifKgtfaZYvgUWh5a2iFTn6jHz5ov7++03ywX1E7l11oI+jyXaorqphQGV0kv/+d820IVmy8f73pbME8VTwZ0XhnyHvjGcDAQQQQCCsADlwWCICEEBAIYFzztZxIeXjFXmrynQkscc5ri5r2lMx4LidvX2bOyjyinork/1hBS66/qSwMZ0BDWWHq6v6O0yhG6Hr2jvLTP6N5c+tTJ5G5nraKjfvTZ72RKslI+feHq2iKAcBBBBAQAiQAzMNEEAAgWMC3/121rFvwm0F/LZbviN73bh7YffdW9t9Z297TpnAotC92cRw/6DirMBA2R+UYnXoP8z9qJ+tefOhFf0sIc6n163eFeca+65u8+sf9x1gxKPiqeAd+aOM2HLajAACCCSngOyP9uRsPa1CAAEEoitwVmnmCfmH5ctsa82cPmuffHxn5APz9lYf0LHG1S23Duw8l414Cpx2SbF8dY3bmha/HvntuGXv7bZViXdlGear/mBTbn1TUjU3WLYlqdoTrcYMufeOaBVFOQgggAAC5MDMAQQQQOArAldc6v3K9+G+2Vkx8IJZ+m6/nHvfvv/7ozNcwceOO5wtpaXZx75nK44CN949yWOTXR1atGvFLzdWV0WSFtZUNS35qcGWdPrwpVVxHAqpqga6m1NvdWjR88LQU8FjpQgIQgABBBAIJ0AOHE6I4wggoJjA/AcL7Q4dTwULni92pY+bWP3mW1KvSJ0zZ8/f/09HAizKv/gqboRO5CwsmKJjRW5xR/Rvr3tHbxpcd7D52W+8mebVkWwnUuTLuqtX7vhyM8z/e2222mynNztTfLoyM11ZYiPbk51Z0/npzKxxZtdnZrkys2qcOe3ZWdXHPp11aZlhKuhy+LM/JdEjyl3a1d/NETwV3F9CzkcAAQSOCliRQAABBBA4TuCaK32vLjxuX5hvW5qcP7y7+cn/rpx+gf3+HxX2GD33vqq3/2b1e3S8gUmUY7YEf/azkh4LZGd8BG6bV/rzyxdr0q/stbu1p65cdNa9E2ddL7Wc79a1B/501/sZbukK4tPtcLWIFaFPqHGFizp6fMjs0hn/foFkcPcw16HGjdc+0n1/j3vaN2zvcb/Rd4qngtfljxpVI/t3B6P3l/YjgAACsRMgB46dLSUjgIBRBf7r0YI/v9Hs8WTo7cCuioG7K7QXnmvIcrYVFXsH5gf8PpPVGthabnbV5Jq00OVfk6bvWt/EqQZLjfSiJX98fmFm4Wm5jWsa5ZtqDphWz9+06tWKOQ+fOfrUgt5OrNnftPDhlYfXV2fpu/Ogt/Liun/5c7KrT7WbTJf1IwEWvcodlF2Tm5fvkrrVwtHWKlaHPnHC0LhyxKWyYvFU8Ny5camKShBAAIFUFiAHTuXRpW8IIBCxwLwH2n/yU905cEd1Yr3oJpe1yaVtNwXN1pagL0N8RtYSi9398CNDIjuXs6IoIC4Fz7/qXc2vr0jTPvfr31nqLbQXThgwYvzAERMLRD5ce7B5zZLdh3a69m2pbd/X7PRpJmM+liRWhJa8paFxSK9/BZAHdZaO0ZbIPn4sVoc+ccL18oUbJVI8FSwuBZ9Uk5oXuo0yCrQTAQRSQIAcOAUGkS4ggED0BW696YRXXjtUviU/+kXrKfGW75mGDHHoOYPYmAgUFGfN+OHYJY9Hsuawr9p9+N0DVe9XrQuYTEee7O64F8CqBb3GzH4FsbgROkd6Reih08f1f1RKbzt/k3QOrIVWh07BHFgwHrkUfG//PSkBAQQQUFnAsD9+VR40+o4AAnERePGZvPSM5rhU1XMlAwu9d96Zgvdz9tzbpN978Q1jck/Wt5hZ0vcp8gZ+JH0jdMBinvEv50Ze05dn5g3Oq83N+/K7MP9/ZHXo3WGCjHlYXArewgLRxhw7Wo0AAskjQA6cPGNBSxBAILkEThxq/9VjQbNF36uSotUH8T6kF18hAY4WZ3TK+ddfnqX/IfHoVJ1spRxeUSHZpEDRCZKRYcOyxO3Q0l/lKbo6tAAYMfe70gwEIoAAAgj0IEAO3AMKuxBAAIEOgdlX5PzhabfFovMx0H7zmS2Bh+c7uQu635BRLkDcEX37M+cELVEu1nDF7d60P6e5TbLZxeeOlowMGzbm0klhYzoDUnV1aNHBwvEldYXDO3vKBgIIIICAXgFyYL1ixCOAgFoCl87K/c2vLPG8Gmyy+B6a75w1M2pXz9QasBj39uRT82fPm+I361vcO4JGjbtpbARnxeeUVa+tk6xIrAh9Uf9WhO5a0fDJw+VfFCxWhy5fWt719FTaHn73ranUHfqCAAIIxFmAHDjO4FSHAALGE7j68pxnn26Pz9Vgk8X/+JO2yy8nAU7eeXLOJSVXzp8aiGUaHBybd82dp7emJ+kV55ZVOyWHpykaK0J3rctyuo4/DWxduKzruam0zVPBqTSa9AUBBOIvQA4cf3NqRAAB4wmIq8HL33cOyJd6PWnE3bNntL39fs6sWSTAERPG6cQzZwy76dlzvGkxuRrsK8744R+vFD0xZdvi1B891excvzenrV3yjCHTdaSsMmWeev2ZMmEdMc5de+SDDRdZMvcOw7WZBiOAAAJJIkAOnCQDQTMQQCDZBYYOsW9eU3DRTHcs7ou2WAKl57nWbR4ydChvQkr2mdDRvrFTB93951n28VnRba63OOO+v13XUWb2sJzoFh6V0tZI3wjtFTdCR2NF6K7NHjZhSIM9veuePrZzfO3lizf2EWDoQ6GngouGG7oLNB4BBBBIlAA5cKLkqRcBBAwp8PzTRZ+ssE07o85s8UWrA8NG1//Pi3kLFoyIVoGUEx+BQcVZ//nyrAvuGuexReGCsM+sFc4e9aMvE2DRhSETCuLTEV21uNZVSsa3FMbkjgbTZB2LbFW8vlyytUYMG/aDW43YbNqMAAIIJFyAHDjhQ0ADEEDAYALFRfa/vFa0fJn1sitqbHZ3xK0X137HTq5/4eWcRe+MLC3lxbMRQyb4xEtvHvtY2XUnXz60P5mwZ3jmbW9ec9NPzu7amXFnJ93LsfbtdVmlb4QuPE/Hq4y6drzv7fFzvqLUd7Clcn/fAYY+Wjhp9OaicYbuAo1HAAEEEiJgTUitVIoAAggYXUC8Pfjp3w4RvVi0uP6vf2vfstldW2MLSFwbzsptOmmM/5LL0m6+MekynP4Myqybs6urW/1em8UW8B95p7LVpvl9dov1y09vmtUW9HlNopaJ0wb0p64kPPe2eWdq885c9HL56jd3BPe0mQOhbob9CthN2sicG+6cevLUou7BJ00clDupQLOYcvxB8Wlq94di0ixOX8BkNYnP7qfEeo/ZYjZffGqj1WzyhhoTtFnEhvg0+/yHrUc/TV5faI/X/+07p8eiPWJ16LU3XOqub244UqPLarF4fQGb1ez1aaZgwGoz+7yHrTaLz1tntVp8Ev9OxqKV4g1Go4pWzLrO7Pfuslgtft/O0Kd3h8Vm9XlEhX6r2PD6rLZRk0v6U//weXetfW3ZJqvVdqRYn9Uuit0YKtzzqdj2ezZY7DZfu5iOXpvd5vX4bPbswQP7UyPnIoAAAikgYAoGo3AHVwpA0AUEEECg/wJ1hz0rV9XbbNrSZQ2i5My1+wAAC8BJREFUNLvd7/WZbdbAmJOc+fnW4SdmnTImyo+P9r/NlBALgZWLdm38cG/97qa2WnfQFDQ3+wL+QEbA5E03BdIs9kzrgBHZUy8bWTqjX/lPLFpOmQgggAACCKS8ADlwyg8xHUQAAQQQQAABBBBAAAEEEDgqwPPATAUEEEAAAQQQQAABBBBAAAFVBMiBVRlp+okAAggggAACCCCAAAIIIEAOzBxAAAEEEEAAAQQQQAABBBBQRYAcWJWRpp8IIIAAAggggAACCCCAAALkwMwBBBBAAAEEEEAAAQQQQAABVQTIgVUZafqJAAIIIIAAAggggAACCCBADswcQAABBBBAAAEEEEAAAQQQUEWAHFiVkaafCCCAAAIIIIAAAggggAAC5MDMAQQQQAABBBBAAAEEEEAAAVUEyIFVGWn6iQACCCCAAAIIIIAAAgggQA7MHEAAAQQQQAABBBBAAAEEEFBFgBxYlZGmnwgggAACCCCAAAIIIIAAAuTAzAEEEEAAAQQQQAABBBBAAAFVBMiBVRlp+okAAggggAACCCCAAAIIIEAOzBxAAAEEEEAAAQQQQAABBBBQRYAcWJWRpp8IIIAAAggggAACCCCAAALkwMwBBBBAAAEEEEAAAQQQQAABVQTIgVUZafqJAAIIIIAAAggggAACCCBADswcQAABBBBAAAEEEEAAAQQQUEWAHFiVkaafCCCAAAIIIIAAAggggAAC5MDMAQQQQAABBBBAAAEEEEAAAVUEyIFVGWn6iQACCCCAAAIIIIAAAgggQA7MHEAAAQQQQAABBBBAAAEEEFBFgBxYlZGmnwgggAACCCCAAAIIIIAAAuTAzAEEEEAAAQQQQAABBBBAAAFVBMiBVRlp+okAAggggAACCCCAAAIIIEAOzBxAAAEEEEAAAQQQQAABBBBQRYAcWJWRpp8IIIAAAggggAACCCCAAALkwMwBBBBAAAEEEEAAAQQQQAABVQTIgVUZafqJAAIIIIAAAggggAACCCBADswcQAABBBBAAAEEEEAAAQQQUEWAHFiVkaafCCCAAAIIIIAAAggggAAC5MDMAQQQQAABBBBAAAEEEEAAAVUEyIFVGWn6iQACCCCAAAIIIIAAAgggQA7MHEAAAQQQQAABBBBAAAEEEFBFgBxYlZGmnwgggAACCCCAAAIIIIAAAuTAzAEEEEAAAQQQQAABBBBAAAFVBMiBVRlp+okAAggggAACCCCAAAIIIEAOzBxAAAEEEEAAAQQQQAABBBBQRYAcWJWRpp8IIIAAAggggAACCCCAAALkwMwBBBBAAAEEEEAAAQQQQAABVQTIgVUZafqJAAIIIIAAAggggAACCCBADswcQAABBBBAAAEEEEAAAQQQUEWAHFiVkaafCCCAAAIIIIAAAggggAAC5MDMAQQQQAABBBBAAAEEEEAAAVUEyIFVGWn6iQACCCCAAAIIIIAAAgggQA7MHEAAAQQQQAABBBBAAAEEEFBFgBxYlZGmnwgggAACCCCAAAIIIIAAAuTAzAEEEEAAAQQQQAABBBBAAAFVBMiBVRlp+okAAggggAACCCCAAAIIIEAOzBxAAAEEEEAAAQQQQAABBBBQRYAcWJWRpp8IIIAAAggggAACCCCAAALkwMwBBBBAAAEEEEAAAQQQQAABVQTIgVUZafqJAAIIIIAAAggggAACCCBADswcQAABBBBAAAEEEEAAAQQQUEWAHFiVkaafCCCAAAIIIIAAAggggAAC5MDMAQQQQAABBBBAAAEEEEAAAVUEyIFVGWn6iQACCCCAAAIIIIAAAgggQA7MHEAAAQQQQAABBBBAAAEEEFBFgBxYlZGmnwgggAACCCCAAAIIIIAAAuTAzAEEEEAAAQQQQAABBBBAAAFVBMiBVRlp+okAAggggAACCCCAAAIIIEAOzBxAAAEEEEAAAQQQQAABBBBQRYAcWJWRpp8IIIAAAggggAACCCCAAALkwMwBBBBAAAEEEEAAAQQQQAABVQTIgVUZafqJAAIIIIAAAggggAACCCBADswcQAABBBBAAAEEEEAAAQQQUEWAHFiVkaafCCCAAAIIIIAAAggggAAC5MDMAQQQQAABBBBAAAEEEEAAAVUEyIFVGWn6iQACCCCAAAIIIIAAAgggQA7MHEAAAQQQQAABBBBAAAEEEFBFgBxYlZGmnwgggAACCCCAAAIIIIAAAuTAzAEEEEAAAQQQQAABBBBAAAFVBMiBVRlp+okAAggggAACCCCAAAIIIEAOzBxAAAEEEEAAAQQQQAABBBBQRYAcWJWRpp8IIIAAAggggAACCCCAAALkwMwBBBBAAAEEEEAAAQQQQAABVQTIgVUZafqJAAIIIIAAAggggAACCCBADswcQAABBBBAAAEEEEAAAQQQUEWAHFiVkaafCCCAAAIIIIAAAggggAAC5MDMAQQQQAABBBBAAAEEEEAAAVUEyIFVGWn6iQACCCCAAAIIIIAAAgggQA7MHEAAAQQQQAABBBBAAAEEEFBFgBxYlZGmnwgggAACCCCAAAIIIIAAAuTAzAEEEEAAAQQQQAABBBBAAAFVBMiBVRlp+okAAggggAACCCCAAAIIIEAOzBxAAAEEEEAAAQQQQAABBBBQRYAcWJWRpp8IIIAAAggggAACCCCAAALkwMwBBBBAAAEEEEAAAQQQQAABVQTIgVUZafqJAAIIIIAAAggggAACCCBADswcQAABBBBAAAEEEEAAAQQQUEWAHFiVkaafCCCAAAIIIIAAAggggAAC5MDMAQQQQAABBBBAAAEEEEAAAVUEyIFVGWn6iQACCCCAAAIIIIAAAgggQA7MHEAAAQQQQAABBBBAAAEEEFBFgBxYlZGmnwgggAACCCCAAAIIIIAAAuTAzAEEEEAAAQQQQAABBBBAAAFVBMiBVRlp+okAAggggAACCCCAAAIIIEAOzBxAAAEEEEAAAQQQQAABBBBQRYAcWJWRpp8IIIAAAggggAACCCCAAALkwMwBBBBAAAEEEEAAAQQQQAABVQTIgVUZafqJAAIIIIAAAggggAACCCBADswcQAABBBBAAAEEEEAAAQQQUEWAHFiVkaafCCCAAAIIIIAAAggggAAC5MDMAQQQQAABBBBAAAEEEEAAAVUEyIFVGWn6iQACCCCAAAIIIIAAAgggQA7MHEAAAQQQQAABBBBAAAEEEFBFgBxYlZGmnwgggAACCCCAAAIIIIAAAuTAzAEEEEAAAQQQQAABBBBAAAFVBMiBVRlp+okAAggggAACCCCAAAIIIEAOzBxAAAEEEEAAAQQQQAABBBBQRYAcWJWRpp8IIIAAAggggAACCCCAAALkwMwBBBBAAAEEEEAAAQQQQAABVQTIgVUZafqJAAIIIIAAAggggAACCCBADswcQAABBBBAAAEEEEAAAQQQUEWAHFiVkaafCCCAAAIIIIAAAggggAAC5MDMAQQQQAABBBBAAAEEEEAAAVUEyIFVGWn6iQACCCCAAAIIIIAAAgggQA7MHEAAAQQQQAABBBBAAAEEEFBFgBxYlZGmnwgggAACCCCAAAIIIIAAAuTAzAEEEEAAAQQQQAABBBBAAAFVBMiBVRlp+okAAggggAACCCCAAAIIIEAOzBxAAAEEEEAAAQQQQAABBBBQRYAcWJWRpp8IIIAAAggggAACCCCAAALkwMwBBBBAAAEEEEAAAQQQQAABVQTIgVUZafqJAAIIIIAAAggggAACCCBADswcQAABBBBAAAEEEEAAAQQQUEWAHFiVkaafCCCAAAIIIIAAAggggAAC5MDMAQQQQAABBBBAAAEEEEAAAVUEyIFVGWn6iQACCCCAAAIIIIAAAgggQA7MHEAAAQQQQAABBBBAAAEEEFBFgBxYlZGmnwgggAACCCCAAAIIIIAAAuTAzAEEEEAAAQQQQAABBBBAAAFVBMiBVRlp+okAAggggAACCCCAAAIIIEAOzBxAAAEEEEAAAQQQQAABBBBQRYAcWJWRpp8IIIAAAggggAACCCCAAAL/D+NgtIOE0LVsAAAAAElFTkSuQmCC;" vertex="1" parent="MQ5hKufeDqWzDWaGNXCB-8">
          <mxGeometry x="552.5" y="21.21" width="191" height="95.58" as="geometry" />
        </mxCell>
        <mxCell id="MQ5hKufeDqWzDWaGNXCB-29" value="Simple Storage Service (S3)&lt;br&gt;" style="sketch=0;points=[[0,0,0],[0.25,0,0],[0.5,0,0],[0.75,0,0],[1,0,0],[0,1,0],[0.25,1,0],[0.5,1,0],[0.75,1,0],[1,1,0],[0,0.25,0],[0,0.5,0],[0,0.75,0],[1,0.25,0],[1,0.5,0],[1,0.75,0]];outlineConnect=0;fontColor=#232F3E;fillColor=#7AA116;strokeColor=#ffffff;dashed=0;verticalLabelPosition=bottom;verticalAlign=top;align=center;html=1;fontSize=12;fontStyle=0;aspect=fixed;shape=mxgraph.aws4.resourceIcon;resIcon=mxgraph.aws4.s3;" vertex="1" parent="MQ5hKufeDqWzDWaGNXCB-8">
          <mxGeometry x="650" y="311" width="78" height="78" as="geometry" />
        </mxCell>
        <mxCell id="MQ5hKufeDqWzDWaGNXCB-31" style="edgeStyle=orthogonalEdgeStyle;rounded=0;orthogonalLoop=1;jettySize=auto;html=1;entryX=0;entryY=0.5;entryDx=0;entryDy=0;entryPerimeter=0;" edge="1" parent="MQ5hKufeDqWzDWaGNXCB-8" source="MQ5hKufeDqWzDWaGNXCB-9" target="MQ5hKufeDqWzDWaGNXCB-29">
          <mxGeometry relative="1" as="geometry" />
        </mxCell>
      </root>
    </mxGraphModel>
  </diagram>
</mxfile>
